<?xml version="1.0" encoding="utf-8"?>
<!-- Generator: Adobe Illustrator 26.4.1, SVG Export Plug-In . SVG Version: 6.00 Build 0)  -->
<svg version="1.1" id="Lager_1" xmlns="http://www.w3.org/2000/svg" xmlns:xlink="http://www.w3.org/1999/xlink" x="0px" y="0px"
	 viewBox="188 178 85 85" style="enable-background:new 0 0 463 436;" xml:space="preserve">
<style type="text/css">
	.st0{fill-rule:evenodd;clip-rule:evenodd;fill:#FFFFFF;}
	.st1{fill:#FFFFFF;}
</style>
<g>
	<path class="st0" d="M237.26,257.57c-0.39-0.18-0.7-0.38-0.94-0.73c-0.45-0.7-2-2.93-2.26-3.37c-0.03-0.06-0.04-0.17,0.03-0.22
		l0.43-0.12c0.51-0.09,0.94-0.52,1.11-0.99c0.2-0.57,0.16-1.26,0.01-1.84c-0.1-0.4-0.4-0.79-0.76-1.04
		c-0.13-0.09-0.25-0.14-0.43-0.18c-0.2-0.05-0.38-0.08-0.63-0.08c-1.3,0-2.44,0.01-3.73,0c-0.06,0-0.14,0.06-0.13,0.13
		c0.01,0.1,0.14,0.08,0.25,0.13c0.22,0.09,0.35,0.36,0.34,0.69l-0.01,6.81c0.03,0.44-0.29,0.7-0.55,0.7c-0.13,0-0.16,0.22,0.06,0.21
		c0.69-0.04,1.48-0.03,2.17,0.04c0.06,0.01,0.16-0.04,0.16-0.13c0-0.05-0.03-0.08-0.12-0.11c-0.38-0.11-0.53-0.15-0.57-0.64
		l0.02-2.66c0-0.05,0.02-0.5,0.02-0.56c0-0.19,0.66-0.11,0.93-0.09c0.23,0.02,0.34,0.22,0.45,0.39c0.83,1.19,1.32,1.98,1.98,2.99
		c0.19,0.29,0.43,0.48,0.73,0.63c0.45,0.23,0.86,0.27,1.37,0.31c0.04,0,0.11-0.04,0.13-0.08
		C237.34,257.72,237.36,257.61,237.26,257.57L237.26,257.57z M232.77,252.86c-0.3,0.02-0.66-0.02-0.95-0.1
		c-0.08-0.02-0.1-0.08-0.1-0.2c0.01-1.37,0.03-2.54,0.03-2.75c0-0.19,0.37-0.16,0.58-0.16c0.64-0.02,1.34-0.07,1.74,0.19
		c0.25,0.17,0.39,0.44,0.48,0.65c0.13,0.31,0.1,0.78,0.08,1.12c-0.02,0.39-0.28,0.74-0.62,0.98
		C233.91,252.67,233.31,252.83,232.77,252.86L232.77,252.86z"/>
	<path class="st0" d="M241.67,241.86c-0.28-0.07-0.51-0.24-0.64-0.49c-0.82-1.64-2.68-6.38-2.68-6.38c-0.31-0.75-0.69-1.71-0.8-1.97
		c-0.04-0.15-0.15-0.03-0.21,0.03c-0.86,1.96-3.39,7.38-3.74,8.01c-0.22,0.4-0.51,0.61-0.63,0.71c-0.15,0.12-0.36,0.1-0.36,0.22
		c0,0.05,0.06,0.12,0.11,0.12c0.3,0,1.29-0.11,2.01-0.02c0.08,0.01,0.12-0.07,0.12-0.14c0-0.09-0.17-0.12-0.26-0.2
		c-0.19-0.18-0.21-0.37-0.15-0.55c0.28-0.8,0.63-1.52,0.96-2.26c0.03-0.08,0.11-0.16,0.2-0.16l3.1,0c0.07,0,0.08,0.04,0.1,0.08
		l0.71,1.76c0.09,0.33,0.25,0.67,0.15,1.05c-0.07,0.25-0.41,0.15-0.41,0.34c0,0.05,0.06,0.09,0.14,0.08
		c0.82-0.02,1.54-0.1,2.33-0.02c0.07,0.01,0.1-0.05,0.1-0.1C241.83,241.92,241.76,241.88,241.67,241.86L241.67,241.86z
		 M238.01,238.06l-2.13,0c-0.05-0.01-0.05-0.07-0.02-0.1c0.43-0.97,0.89-1.92,1.31-2.9c0.02-0.03,0.09-0.1,0.11-0.05
		c0.17,0.43,1.04,2.62,1.11,2.8C238.49,238.05,238.38,238.06,238.01,238.06L238.01,238.06z"/>
	<path class="st0" d="M258.22,241.86c-0.28-0.07-0.51-0.24-0.64-0.49c-0.82-1.64-2.68-6.38-2.68-6.38c-0.31-0.75-0.69-1.71-0.8-1.97
		c-0.04-0.15-0.15-0.03-0.21,0.03c-0.86,1.96-3.39,7.38-3.74,8.01c-0.22,0.4-0.51,0.61-0.63,0.71c-0.15,0.12-0.36,0.1-0.36,0.22
		c0,0.05,0.06,0.12,0.11,0.12c0.3,0,1.29-0.11,2.01-0.02c0.08,0.01,0.12-0.07,0.12-0.14c0-0.09-0.17-0.12-0.26-0.2
		c-0.19-0.18-0.21-0.37-0.15-0.55c0.28-0.8,0.63-1.52,0.96-2.26c0.03-0.08,0.11-0.16,0.2-0.16l3.1,0c0.07,0,0.08,0.04,0.1,0.08
		l0.71,1.76c0.09,0.33,0.25,0.67,0.15,1.05c-0.07,0.25-0.41,0.15-0.41,0.34c0,0.05,0.06,0.09,0.14,0.08
		c0.82-0.02,1.54-0.1,2.33-0.02c0.07,0.01,0.1-0.05,0.1-0.1C258.39,241.92,258.32,241.88,258.22,241.86L258.22,241.86z
		 M254.57,238.06l-2.13,0c-0.05-0.01-0.05-0.07-0.02-0.1c0.43-0.97,0.89-1.92,1.31-2.9c0.02-0.03,0.09-0.1,0.11-0.05
		c0.17,0.43,1.04,2.62,1.11,2.8C255.04,238.05,254.94,238.06,254.57,238.06L254.57,238.06z"/>
	<path class="st1" d="M230.98,233.37c0.2,0.05,0.18,0.18,0.18,0.34c0,0.41,0.01,0.71,0.02,1.19c0,0.09,0.02,0.23-0.08,0.23
		c-0.21,0-0.22-0.47-0.37-0.65c-0.21-0.26-0.76-0.66-1.44-0.66c-0.82,0-1.4,0.48-1.4,1.15c0,0.83,0.16,1.09,1.23,1.59
		c0.67,0.32,2.2,0.76,2.74,1.59c0.27,0.42,0.34,0.87,0.34,1.38c-0.02,0.64-0.25,1.26-0.66,1.77c-0.91,1.15-3.19,0.97-4.36,0.84
		c-0.16-0.02-0.36,0.08-0.38-0.12c0.03-0.58,0.02-1.11,0.02-1.69c0-0.16,0.09-0.21,0.15-0.16c0.07,0.09,0.08,0.2,0.13,0.3
		c0.41,0.77,1.04,1.06,2.24,1.06c0.76,0,1.55-0.42,1.83-1.22c0.17-0.49,0.06-1.06-0.29-1.41c-0.67-0.8-1.67-1.09-2.58-1.45
		c-0.53-0.21-1.42-0.79-1.42-2.24c0-0.63,0.39-1.29,0.82-1.58C228.58,233.04,230.05,233.16,230.98,233.37L230.98,233.37z"/>
	<path class="st1" d="M245.08,233.38c0.07-0.01,0.09,0.12,0,0.19c-0.19,0.13-0.4,0.13-0.5,0.38c-0.17,0.51-0.09,1.1-0.12,1.63
		l-0.01,3.27c0.02,1.27-0.16,1.83,0.59,2.41c0.29,0.22,1.73,0.16,2.1,0.12c0.8-0.08,1.08-0.5,1.25-0.8
		c0.04-0.07,0.07-0.17,0.15-0.17c0.12,0,0.11,0.09,0.1,0.21c-0.05,0.41-0.11,0.95-0.15,1.26c-0.02,0.09-0.12,0.19-0.21,0.19
		c-1.64,0.07-4.14-0.05-5.44,0.02c-0.06,0-0.16-0.02-0.16-0.1c0-0.09,0.08-0.15,0.17-0.19c0.18-0.1,0.33-0.09,0.46-0.33
		c0.12-0.22,0.15-0.46,0.16-0.72c0.06-2.69,0.03-5.86-0.07-6.74c-0.03-0.26-0.35-0.33-0.57-0.43c-0.09-0.04-0.04-0.2,0.07-0.19
		C243.18,233.41,244.56,233.45,245.08,233.38L245.08,233.38z"/>
	<path class="st1" d="M206.42,255.77l0.01-5.37c-0.01-0.24-0.04-0.33-0.1-0.5c-0.1-0.29-0.24-0.5-0.53-0.65
		c-0.11-0.06-0.09-0.22-0.02-0.21c0.66,0.05,1.23,0.02,1.83,0c0.07,0,0.13,0.02,0.13,0.07c0,0.16-0.18,0.17-0.29,0.28
		c-0.17,0.18-0.3,0.33-0.32,0.6c-0.08,1.13-0.01,6.32-0.01,6.32c0.01,0.51,0,0.89,0.02,1.42c0.01,0.15-0.11,0.22-0.16,0.17
		c-0.32-0.33-0.71-0.65-1.09-1.09c-1.43-1.32-4.54-4.42-6-5.73c-0.03-0.03-0.1,0.01-0.1,0.05c0,0-0.03,5.03,0.11,5.88
		c0.03,0.18,0.34,0.49,0.55,0.57c0.03,0.01,0.08,0.03,0.08,0.09c0,0.05-0.02,0.08-0.11,0.07c-0.71-0.07-1.41-0.12-2.08-0.02
		c-0.07,0.01-0.09-0.05-0.09-0.1c0-0.19,0.44-0.12,0.64-0.57c0.16-0.36,0.12-7.6,0.12-7.6l0-0.8c0-0.07,0.09-0.08,0.13-0.04
		C199.16,248.61,205.76,255.2,206.42,255.77L206.42,255.77z"/>
	<path class="st1" d="M256.15,249.01c0.04,0,0.08,0.03,0.09,0.07l0,1.43c0,0.3-0.2,0.24-0.27,0.03c-0.08-0.23-0.16-0.44-0.23-0.52
		c-0.24-0.29-0.54-0.46-0.89-0.49l-1.63,0c-0.21,0-0.3,0.09-0.3,0.27c-0.04,2.6-0.12,6.46,0.05,7.03c0.16,0.53,0.46,0.56,0.65,0.64
		c0.12,0.05,0.18,0.2-0.06,0.2c-0.63,0-2.48,0-2.48,0c-0.2,0-0.18-0.18-0.04-0.22c0.23-0.06,0.41-0.12,0.52-0.31
		c0.1-0.18,0.16-0.31,0.17-0.61c0.01-0.4,0.03-4.82,0.02-6.32c0-0.49-0.07-0.62-0.17-0.65c-0.3-0.09-1.63-0.1-2.27,0.1
		c-0.37,0.13-0.58,0.49-0.58,0.86c0,0.07-0.05,0.13-0.13,0.13c-0.06,0-0.09-0.02-0.09-0.11l0.02-1.44c0-0.07,0.07-0.13,0.26-0.13
		L256.15,249.01L256.15,249.01z"/>
	<path class="st1" d="M227.58,249.19c0,0.39-0.01,0.63,0.01,0.99c0,0.03-0.03,0.07-0.07,0.07c-0.11,0-0.23-0.36-0.47-0.49
		c-0.65-0.35-1.42-0.23-2.24-0.23c0,0-0.46,0.02-0.47,0.11c0,0.03-0.04,1.99-0.04,3.01c0,0.03,0.03,0.06,0.09,0.06
		c0.12,0,2.62-0.01,2.62-0.01c0.22-0.01,0.27-0.23,0.3-0.29c0.05-0.12,0.21-0.14,0.2-0.01c-0.04,0.5-0.06,0.97-0.06,1.45
		c0,0.04-0.07,0.06-0.12-0.02c-0.19-0.31-0.47-0.49-0.86-0.49c-0.75,0-1.41-0.04-2.15,0.04c-0.05,0.01-0.05,0.05-0.05,0.11
		c0,0.92-0.04,1.65-0.02,2.57c0.01,0.32,0.09,0.62,0.34,0.83c0.5,0.33,1.18,0.23,1.74,0.21c0.46-0.02,0.99,0.04,1.26-0.36
		c0.16-0.23,0.07-0.35,0.28-0.61c0.03-0.04,0.13-0.03,0.13,0.04c-0.03,0.62-0.02,0.78-0.04,1.47c0,0.1-0.1,0.08-0.1,0.08
		s-5.07,0.02-5.28,0c-0.08-0.01-0.13-0.15-0.01-0.19c0.28-0.09,0.61-0.11,0.61-0.69l0.02-2.65c0.03-1.41,0.14-2.89-0.04-4.32
		c-0.03-0.23-0.1-0.48-0.37-0.56c-0.08-0.03-0.25-0.01-0.25-0.13c0-0.12,0.05-0.17,0.22-0.16c1.51,0.02,3.04-0.01,4.55-0.02
		C227.46,248.99,227.58,249.03,227.58,249.19L227.58,249.19z"/>
	<path class="st1" d="M221.21,249.01c0.13,0,0.16,0.11,0.07,0.16c-0.17,0.11-0.48,0.18-0.59,0.45c-1.13,2.78-2.3,5.46-3.46,8.23
		c-0.01,0.04-0.09,0.08-0.13-0.02c0,0-2.2-4.82-3.89-8.25c-0.14-0.28-0.44-0.25-0.66-0.37c-0.04-0.02-0.05-0.07-0.05-0.11
		c0-0.02,0.01-0.08,0.11-0.08c0.54,0.01,1.59,0.02,2.21-0.02c0.05,0,0.12,0.04,0.11,0.12c-0.03,0.22-0.48,0.23-0.29,0.67
		c0.51,1.2,1.31,3.15,2.67,5.82c0.05,0.09,0.13-0.15,0.18-0.26c0.74-1.68,1.38-3.43,2.08-5.13c0.06-0.15,0.24-0.73-0.14-0.93
		c-0.08-0.04-0.23-0.08-0.23-0.16c0-0.05,0.01-0.12,0.1-0.12C219.98,249.01,220.53,249.01,221.21,249.01L221.21,249.01z"/>
	<path class="st1" d="M211.65,249.03c0.1,0,0.15,0.21,0,0.23c-0.41,0.05-0.56,0.26-0.57,1c-0.02,0.9-0.02,6.04-0.02,6.04
		c0,0.42,0.13,0.84,0.21,0.95c0.22,0.27,0.52,0.24,0.52,0.37c0,0.05-0.01,0.13-0.08,0.12c-0.77-0.1-1.56,0.05-2.31,0.03
		c-0.06,0-0.08-0.07-0.08-0.11c0-0.19,0.29-0.08,0.43-0.22c0.13-0.13,0.19-0.32,0.2-0.48c0.06-3.42,0.07-4.64,0.02-7.07
		c-0.01-0.49-0.6-0.58-0.77-0.67c-0.05-0.02-0.03-0.21,0.09-0.2C210.08,249.02,210.85,249.01,211.65,249.03L211.65,249.03z"/>
	<path class="st1" d="M210.21,233.36c0.1,0,0.11,0.05,0.11,0.09c0,0.05-0.05,0.09-0.1,0.1c-0.51,0.16-0.62,0.69-0.64,1.15
		c0,1.38,0,2.93,0.01,4.35c-0.05,0.77-0.16,1.46-0.64,2.03c-0.37,0.44-0.96,0.85-1.91,1.01c-0.65,0.11-1.3,0.17-1.96,0.06
		c-0.95-0.15-1.28-0.34-1.88-0.93c-0.55-0.53-0.65-1.16-0.7-2.07l0-4.81c-0.03-0.43-0.08-0.7-0.53-0.86
		c-0.02-0.01-0.03-0.08-0.02-0.11c0.03-0.07,0.24-0.03,0.36-0.03c0.67,0.01,1.28,0.01,1.96,0.01c0.03,0,0.08,0.02,0.07,0.07
		c0,0.09-0.16,0.09-0.25,0.14c-0.56,0.29-0.43,0.85-0.45,1.44l0,2.99c0,1.16-0.16,2.74,1.15,3.28c0.46,0.19,0.99,0.17,1.41,0.17
		c1.87,0,2.49-1.21,2.52-1.98c0.05-1.3,0.04-4.79-0.03-5.08c-0.09-0.44-0.48-0.69-0.76-0.86c-0.05-0.08-0.02-0.18,0.11-0.17
		C208.47,233.38,209.88,233.39,210.21,233.36L210.21,233.36z"/>
	<path class="st0" d="M216.14,233.39c-1.32-0.15-2.75,0.02-4.09-0.02c-0.11,0-0.27,0-0.27,0.1c0,0.17,0.2,0.13,0.33,0.17
		c0.21,0.07,0.48,0.36,0.5,0.98c0.02,0.5,0.03,4.67,0.01,5.48c-0.01,0.55,0.07,1.6-0.58,1.81c-0.07,0.02-0.19,0.08-0.19,0.13
		c0,0.06,0.02,0.09,0.07,0.09c0.53,0,1.52-0.07,2.36,0.01c0.08,0.01,0.1-0.04,0.09-0.11c-0.01-0.09-0.2-0.11-0.32-0.17
		c-0.31-0.17-0.35-0.67-0.35-1.04c0-1.02-0.05-1.83-0.03-2.69c0-0.18,0.09-0.2,0.18-0.19c3.35,0.29,3.81-1.29,3.79-2.49
		C217.64,234.45,217.24,233.52,216.14,233.39L216.14,233.39z M215.46,237.27c-0.31,0.01-1.1,0.02-1.53,0.01
		c-0.14,0-0.17-0.16-0.17-0.23c-0.05-1.01-0.08-2.13-0.01-2.99c0.01-0.15,0.19-0.12,0.3-0.13c0.67-0.04,1.17-0.05,1.73,0.03
		c0.23,0.03,0.48,0.2,0.61,0.43c0.2,0.35,0.21,0.76,0.25,1.17C216.72,236.55,216.04,237.26,215.46,237.27L215.46,237.27z"/>
	<path class="st0" d="M223.59,233.39c-1.32-0.15-2.75,0.02-4.09-0.02c-0.11,0-0.27,0-0.27,0.1c0,0.17,0.2,0.13,0.33,0.17
		c0.21,0.07,0.48,0.36,0.5,0.98c0.02,0.5,0.03,4.67,0.01,5.48c-0.01,0.55,0.07,1.6-0.58,1.81c-0.07,0.02-0.19,0.08-0.19,0.13
		c0,0.06,0.02,0.09,0.07,0.09c0.53,0,1.52-0.07,2.36,0.01c0.08,0.01,0.1-0.04,0.09-0.11c-0.01-0.09-0.2-0.11-0.32-0.17
		c-0.31-0.17-0.35-0.67-0.35-1.04c0-1.02-0.05-1.83-0.03-2.69c0-0.18,0.09-0.2,0.18-0.19c3.35,0.29,3.81-1.29,3.79-2.49
		C225.09,234.45,224.69,233.52,223.59,233.39L223.59,233.39z M222.91,237.27c-0.31,0.01-1.1,0.02-1.53,0.01
		c-0.14,0-0.17-0.16-0.17-0.23c-0.05-1.01-0.08-2.13-0.01-2.99c0.01-0.15,0.19-0.12,0.3-0.13c0.67-0.04,1.17-0.05,1.73,0.03
		c0.23,0.03,0.48,0.2,0.61,0.43c0.2,0.35,0.21,0.76,0.25,1.17C224.17,236.55,223.49,237.26,222.91,237.27L222.91,237.27z"/>
	<path class="st1" d="M197.28,249.09c0.1,0,0.11,0.05,0.11,0.09c0,0.05-0.05,0.09-0.1,0.1c-0.51,0.16-0.62,0.69-0.64,1.15
		c0,1.38,0,2.93,0.01,4.35c-0.05,0.77-0.16,1.46-0.64,2.03c-0.37,0.44-0.96,0.85-1.91,1.01c-0.65,0.11-1.3,0.17-1.96,0.06
		c-0.95-0.15-1.28-0.34-1.88-0.93c-0.55-0.53-0.65-1.16-0.7-2.07l0-4.81c-0.03-0.43-0.08-0.7-0.53-0.86
		c-0.02-0.01-0.03-0.08-0.02-0.11c0.03-0.07,0.24-0.03,0.36-0.03c0.67,0.01,1.28,0.01,1.96,0.01c0.03,0,0.08,0.02,0.07,0.07
		c0,0.09-0.16,0.09-0.25,0.14c-0.56,0.29-0.43,0.85-0.45,1.44l0,2.99c0,1.16-0.16,2.74,1.15,3.28c0.46,0.19,0.99,0.17,1.41,0.17
		c1.87,0,2.49-1.21,2.52-1.98c0.05-1.3,0.04-4.79-0.03-5.08c-0.09-0.44-0.48-0.69-0.76-0.86c-0.05-0.08-0.02-0.18,0.11-0.17
		C195.53,249.1,196.94,249.12,197.28,249.09L197.28,249.09z"/>
	<path class="st1" d="M242.28,248.96c0.2,0.05,0.18,0.18,0.18,0.34c0,0.41,0.01,0.71,0.02,1.19c0,0.09,0.02,0.23-0.08,0.23
		c-0.21,0-0.22-0.47-0.37-0.65c-0.21-0.26-0.76-0.66-1.44-0.66c-0.82,0-1.4,0.48-1.4,1.15c0,0.83,0.16,1.09,1.23,1.59
		c0.67,0.32,2.2,0.76,2.74,1.59c0.27,0.42,0.34,0.87,0.34,1.38c-0.02,0.64-0.25,1.26-0.66,1.77c-0.91,1.15-3.19,0.97-4.36,0.84
		c-0.16-0.02-0.36,0.08-0.38-0.12c0.03-0.58,0.02-1.11,0.02-1.69c0-0.16,0.09-0.21,0.15-0.16c0.07,0.09,0.08,0.2,0.13,0.3
		c0.41,0.77,1.04,1.06,2.24,1.06c0.76,0,1.55-0.42,1.83-1.22c0.17-0.49,0.06-1.06-0.29-1.41c-0.67-0.8-1.67-1.09-2.58-1.45
		c-0.53-0.21-1.42-0.79-1.42-2.24c0-0.63,0.39-1.29,0.82-1.58C239.88,248.62,241.36,248.74,242.28,248.96L242.28,248.96z"/>
	<path class="st1" d="M247.09,248.99c0.1,0,0.15,0.21,0,0.23c-0.41,0.05-0.56,0.26-0.57,1c-0.02,0.9-0.02,6.04-0.02,6.04
		c0,0.42,0.13,0.84,0.21,0.95c0.22,0.27,0.52,0.24,0.52,0.37c0,0.05-0.01,0.13-0.08,0.12c-0.77-0.1-1.56,0.05-2.31,0.03
		c-0.06,0-0.08-0.07-0.08-0.11c0-0.19,0.29-0.08,0.43-0.22c0.13-0.13,0.19-0.32,0.2-0.48c0.06-3.42,0.07-4.64,0.02-7.07
		c-0.01-0.49-0.6-0.58-0.77-0.67c-0.05-0.02-0.03-0.21,0.09-0.2C245.51,248.98,246.29,248.97,247.09,248.99L247.09,248.99z"/>
	<path class="st1" d="M262.81,249.19c0,0.39-0.01,0.63,0.01,0.99c0,0.03-0.03,0.07-0.07,0.07c-0.11,0-0.23-0.36-0.47-0.49
		c-0.65-0.35-1.42-0.23-2.24-0.23c0,0-0.46,0.02-0.47,0.11c0,0.03-0.04,1.99-0.04,3.01c0,0.03,0.03,0.06,0.09,0.06
		c0.12,0,2.62-0.01,2.62-0.01c0.22-0.01,0.27-0.23,0.3-0.29c0.05-0.12,0.21-0.14,0.2-0.01c-0.04,0.5-0.06,0.97-0.06,1.45
		c0,0.04-0.07,0.06-0.12-0.02c-0.19-0.31-0.47-0.49-0.86-0.49c-0.75,0-1.41-0.04-2.15,0.04c-0.05,0.01-0.05,0.05-0.05,0.11
		c0,0.92-0.04,1.65-0.02,2.57c0.01,0.32,0.09,0.62,0.34,0.83c0.5,0.33,1.18,0.23,1.74,0.21c0.46-0.02,0.99,0.04,1.26-0.36
		c0.16-0.23,0.07-0.35,0.28-0.61c0.03-0.04,0.13-0.03,0.13,0.04c-0.03,0.62-0.02,0.78-0.04,1.47c0,0.1-0.1,0.08-0.1,0.08
		s-5.07,0.02-5.28,0c-0.08-0.01-0.13-0.15-0.01-0.19c0.28-0.09,0.61-0.11,0.61-0.69l0.02-2.65c0.03-1.41,0.14-2.89-0.04-4.32
		c-0.03-0.23-0.1-0.48-0.37-0.56c-0.08-0.03-0.25-0.01-0.25-0.13c0-0.12,0.05-0.17,0.22-0.16c1.51,0.02,3.04-0.01,4.55-0.02
		C262.68,248.99,262.81,249.03,262.81,249.19L262.81,249.19z"/>
	<path class="st1" d="M271.95,248.99c0.04,0,0.08,0.03,0.09,0.07l0,1.43c0,0.3-0.2,0.24-0.27,0.03c-0.08-0.23-0.16-0.44-0.23-0.52
		c-0.24-0.29-0.54-0.46-0.89-0.49l-1.63,0c-0.21,0-0.3,0.09-0.3,0.27c-0.04,2.6-0.12,6.46,0.05,7.03c0.16,0.53,0.46,0.56,0.65,0.64
		c0.12,0.05,0.18,0.2-0.06,0.2c-0.63,0-2.48,0-2.48,0c-0.2,0-0.18-0.18-0.04-0.22c0.23-0.06,0.41-0.12,0.52-0.31
		c0.1-0.18,0.16-0.31,0.17-0.61c0.01-0.4,0.03-4.82,0.02-6.32c0-0.49-0.07-0.62-0.17-0.65c-0.3-0.09-1.63-0.1-2.27,0.1
		c-0.37,0.13-0.58,0.49-0.58,0.86c0,0.07-0.05,0.13-0.13,0.13c-0.06,0-0.09-0.02-0.09-0.11l0.02-1.44c0-0.07,0.07-0.13,0.26-0.13
		L271.95,248.99L271.95,248.99z"/>
	<path class="st0" d="M221.29,216.15c-0.36-0.27-0.75-0.51-1.15-0.7c-0.44-0.06-0.91,0-1.15,0.39c-0.26,0.29-0.2,0.74-0.08,1.06
		c0.1,0.2-0.47,0.34-0.52,0.51c-0.23,0.29,0,0.77,0.2,0.93c0.22,0.18,0.42,0.31,0.63,0.46c0.33,0.27,0.72,0.4,1.1,0.56
		c0.05,0.01,0.16,0.04,0.2-0.03c0.13-0.17,0.01-0.13-0.11-0.3c-0.17-0.29,0.18-0.76,0.29-0.99c0.21-0.43,0.33-0.86,0.77-1.1
		c0.19-0.08,0.5,0.07,0.59-0.16C221.9,216.47,221.53,216.4,221.29,216.15L221.29,216.15z M219.63,218.42
		c-0.23,0.11-0.42-0.21-0.59-0.31c-0.01-0.12,0.02-0.29,0.07-0.4c0.08-0.07,0.29-0.29,0.4-0.24c0.09,0.12,0.28,0.26,0.42,0.33
		C219.96,217.96,219.7,218.28,219.63,218.42L219.63,218.42z M220.35,216.99c-0.05,0.08-0.15,0.34-0.26,0.37
		c-0.17-0.06-0.34-0.21-0.48-0.36c-0.3-0.32,0.03-0.6,0.08-0.8c0.26-0.18,0.78-0.17,1.01,0.01
		C220.87,216.49,220.41,216.77,220.35,216.99L220.35,216.99z"/>
	<path class="st0" d="M227.97,202.34c-0.2,0.08-0.02,0.39-0.36,0.42c-0.27,0.02-0.65-0.22-0.8-0.49c0.12-0.15,0.48-0.21,0.47-0.67
		c-0.01-0.41-0.11-0.66-0.6-0.82c-0.34-0.11-0.75-0.04-1.13-0.06c-0.14,0.02-0.37-0.03-0.46,0.1c-0.05,0.11,0.13,0.11,0.19,0.21
		c0.08,0.5,0,1.34-0.04,1.83c0,0.15-0.32,0.22-0.18,0.37c0.11,0.18,0.45,0.03,0.63,0.06c0.09,0.02,0.17,0.05,0.25,0
		c0.16-0.11,0.01-0.27,0.03-0.43c0.01-0.14-0.16-0.53,0.37-0.2c0.3,0.19,0.53,0.49,0.88,0.57c0.21,0.04,0.6,0.11,0.75-0.11
		c0.13-0.21,0.23-0.4,0.18-0.67C228.1,202.39,228.07,202.29,227.97,202.34L227.97,202.34z M226.5,201.92
		c-0.08,0.17-0.28,0.19-0.45,0.17c-0.15-0.07-0.02-0.53-0.08-0.64c-0.04-0.09-0.01-0.24,0.04-0.32c0.16-0.06,0.41-0.07,0.5,0.13
		C226.56,201.4,226.56,201.79,226.5,201.92L226.5,201.92z"/>
	<path class="st0" d="M226.44,188.83c-0.11-0.13-0.76,0.08-0.89,0.14c-0.32,0.23-0.14,0.64-0.08,0.94l-0.03,0.94
		c-0.05,0.31-0.14,0.61-0.25,0.89c0.15,0.15,0.39,0,0.57-0.06c0.11-0.09,0.29-0.08,0.33-0.23c-0.01-0.08-0.11-0.06-0.16-0.09
		c-0.04-0.06-0.09-0.11-0.07-0.19c0.01-0.2,0.18-0.31,0.32-0.43c0.15-0.06,0.72-0.37,0.89-0.25c0.09,0.07,0.14,0.15,0.14,0.26
		c0.05,0.15-0.37,0.36-0.05,0.45c0.32,0.09,0.77-0.33,1.08-0.45l0.02-0.06c-0.27-0.25-0.22-0.06-0.43-0.37
		C227.81,190.31,226.75,189.01,226.44,188.83L226.44,188.83z M226.64,190.19c-0.1,0.05-0.65,0.34-0.75,0.26
		c-0.09-0.23-0.15-0.81-0.01-1.06c0.3-0.14,0.6,0.42,0.76,0.56C226.68,190.02,226.68,190.13,226.64,190.19L226.64,190.19z"/>
	<path class="st0" d="M223.53,191.92c-0.13-0.03-0.26,0.01-0.34,0.11c-0.06,0.11-0.05,0.25-0.04,0.37
		c-0.04,0.14-0.12,0.28-0.27,0.32c-0.14,0-0.43-0.02-0.43-0.02c0.11-0.32,0.12-0.81-0.15-1.07c-0.2-0.21-0.38-0.36-0.67-0.3
		c-0.33-0.01-0.65,0.11-0.81,0.42c-0.26,0.25-0.62,0.44-0.87,0.68c-0.05,0.08,0.02,0.16,0.07,0.2c0.25-0.05,0.43,0.11,0.61,0.24
		c0.23,0.29,0.51,0.71,0.76,1c0.21,0.19-0.07,0.46,0.14,0.65c0.05,0.05,0.15,0.06,0.21,0.03l0.72-0.73c0.05-0.13-0.04-0.3-0.2-0.23
		c-0.09-0.01-0.2-0.05-0.23-0.17c0.35-0.2,0.84-0.08,1.22-0.23c0.23-0.11,0.48-0.33,0.54-0.59
		C223.82,192.35,223.78,192.06,223.53,191.92L223.53,191.92z M221.66,192.99c-0.23,0-0.51-0.6-0.72-0.69
		c0.01-0.09,0.21-0.29,0.29-0.32c0.35-0.26,0.66,0.25,0.69,0.52C221.95,192.66,221.75,192.9,221.66,192.99L221.66,192.99z"/>
	<path class="st0" d="M228.6,219.73c-0.1,0.31-0.22,0.61-0.43,0.88c-0.23,0.29-0.56,0.42-0.88,0.51c-0.48,0.14-0.64-0.21-1.02,0.19
		c-0.04,0.09,0.01,0.17,0.08,0.23c0.4,0.19,0.53,0.13,1,0.14c0.3,0.05,0.65,0.04,0.97,0.04c0.29-0.14,0.61-0.16,0.88-0.3
		c0.29-0.11,0.73-0.5,1.06-0.46l0.91,0.46c0.88,0.24,1.27,0.18,1.94,0.15c0.27-0.03,0.47-0.27,0.61-0.49
		c0.01-0.11,0.06-0.26-0.04-0.35c-0.12-0.14-0.27,0.01-0.42-0.02c-0.48-0.11-1.01-0.14-1.34-0.6c-0.1-0.12-0.19-0.24-0.28-0.37
		l-0.6,0c0.2,0.37,0.46,0.71,0.7,1.02c0.05,0.07,0.2,0.11,0.14,0.21c-0.18,0.06-0.55-0.24-0.7-0.34c-0.43-0.22-0.83-0.8-1.5-0.44
		c-0.15,0.08-0.24,0.14-0.39,0.24c-0.08,0.05-0.45,0.38-0.55,0.34l0.32-0.56c0.04-0.16,0.1-0.32,0.16-0.47L228.6,219.73
		L228.6,219.73z"/>
	<path class="st0" d="M226.65,217.73c0.01,0,0.02,0.01,0.03,0.01c0.47,0.06,1,0.03,1.45,0.14c0.22,0.2,0.55,0.22,0.68,0.53
		c0.06,0.15,0.08,0.34,0.03,0.5c-0.09,0.27-0.15,0.55-0.24,0.83l0.61,0c0.09-0.24,0.19-0.48,0.22-0.75
		c0.04-0.27,0.12-0.58-0.06-0.84c-0.07-0.13-0.18-0.27-0.32-0.4L226.65,217.73L226.65,217.73z M230.98,217.73
		c-0.17,0.31-0.29,0.64-0.29,0.92c0.04,0.39,0.18,0.75,0.36,1.09l0.6,0c-0.27-0.43-0.43-0.94-0.24-1.44
		c0.16-0.27,0.49-0.27,0.79-0.29c0.39-0.11,0.79-0.18,1.19-0.27L230.98,217.73L230.98,217.73z"/>
	<path class="st0" d="M218.65,213.73c0.01,0.01,0.01,0.01,0.02,0.02c0.48,0.63,1.16,0.96,1.71,1.5c0.8,0.53,1.65,0.96,2.49,1.37
		c0.49,0.24,1.01,0.39,1.54,0.55c0.68,0.34,1.52,0.33,2.24,0.56l2.41,0c-0.33-0.33-0.76-0.65-0.94-0.83c0.01-0.1,0.07-0.1,0.16-0.14
		c0.38,0,1.31,0.58,1.6,0.27c0.09-0.08,0.16-0.27,0.3-0.24c0.2,0.35,0.63,0.23,0.95,0.19c0.14-0.01,0.42-0.17,0.56-0.21
		c0.02,0.03,0.05,0.08,0.03,0.11c-0.27,0.17-0.54,0.49-0.74,0.84l2.4,0c0.65-0.13,1.29-0.28,1.86-0.58
		c0.79-0.21,1.52-0.58,2.26-0.91c0.64-0.38,1.28-0.75,1.9-1.18c0.52-0.37,0.98-0.85,1.43-1.33l-0.81,0
		c-0.62,0.63-1.38,0.98-2.07,1.45c-1,0.57-2.03,1.1-3.12,1.48c-0.63,0.33-1.36,0.41-2.03,0.66c-0.17,0.02-0.36,0.03-0.45-0.12
		c-0.03-0.08-0.07-0.18-0.01-0.26c0.2-0.17,0.54-0.14,0.66-0.45c0.02-0.2-0.15-0.25-0.31-0.34c-0.3-0.11-0.6,0.07-0.91,0.1
		c-0.35,0.11-0.65,0.28-1.07,0.15c-0.13-0.09-0.25-0.18-0.35-0.3l0.01-0.06c0.32,0.06,0.63-0.05,0.96-0.05
		c0.58,0.04,1.09-0.18,1.68-0.14c0.95-0.05,1.82-0.3,2.61-0.75c0.82-0.36,1.62-0.79,2.36-1.36c0,0,0.01-0.01,0.01-0.01l-1.05,0
		c-0.58,0.35-1.16,0.68-1.75,0.99l-1.26,0.43l-0.36,0.08l-3.1,0.31c-0.39,0.08-0.76-0.04-1.14-0.05c-0.52-0.09-1.06-0.12-1.58-0.23
		c-1.78-0.25-3.51-0.62-5.01-1.54l-1.06,0c0.69,0.51,1.41,0.97,2.22,1.18c0.83,0.31,1.71,0.48,2.58,0.7c1.12,0.25,2.33,0.29,3.5,0.4
		l0.03,0.04c-0.36,0.14-0.37,0.82-0.86,0.57c-0.51-0.17-0.87-0.37-1.37-0.57c-0.23,0.01-0.66-0.13-0.78,0.12
		c-0.06,0.14-0.12,0.31-0.07,0.48c0.04,0.07,0.13,0.11,0.21,0.08c0.08-0.13,0.27-0.04,0.39-0.01c0.05,0.03,0.06,0.12,0.03,0.17
		c-0.39,0.26-0.86,0.02-1.29,0.03c-0.57-0.18-1.2-0.23-1.73-0.51c-0.35-0.11-0.69-0.28-1.05-0.36c-0.78-0.42-1.58-0.77-2.32-1.26
		c-0.5-0.31-1.01-0.67-1.47-1.08L218.65,213.73L218.65,213.73z"/>
	<path class="st0" d="M214.34,205.73c0.2,0.71,0.44,1.41,0.7,2.1c0.34,0.54,0.45,1.19,0.77,1.74c0.89,1.42,1.76,2.83,2.84,4.16
		l1.08,0c-0.52-0.46-0.99-0.99-1.35-1.57c-0.93-1.15-1.64-2.38-2.23-3.66c-0.14-0.45-0.43-0.85-0.58-1.29
		c-0.21-0.48-0.37-0.98-0.52-1.48L214.34,205.73L214.34,205.73z M216.34,205.73l0.23,0.85c0.2,0.64,0.51,1.24,0.71,1.88
		c0.34,0.98,1.11,1.79,1.71,2.66c0.48,0.72,1.2,1.32,1.83,1.96c0.29,0.21,0.58,0.43,0.87,0.64l1.06,0c-0.2-0.12-0.4-0.26-0.59-0.4
		c-0.83-0.57-1.66-1.27-2.31-2.06c-0.5-0.52-0.91-1.1-1.32-1.68c-0.42-0.43-0.57-0.99-0.85-1.48c-0.27-0.77-0.52-1.55-0.63-2.38
		L216.34,205.73L216.34,205.73z M219.94,205.73c0.24,0.44,0.51,0.86,0.74,1.31c0.4,0.74,1.11,1.37,1.64,2.03
		c0.41,0.41,0.87,0.76,1.27,1.15c1.22,1,2.67,1.42,4.1,1.91c0.79,0.23,1.62,0.32,2.47,0.38c0.79,0.02,1.51-0.12,2.24-0.25
		c0.3,0.04,0.52-0.13,0.79-0.19c0.61-0.06,1.09-0.44,1.67-0.62c0.63-0.3,1.24-0.69,1.87-0.99c0.76-0.54,1.3-1.36,1.99-2.01
		c0.3-0.57,0.86-1.03,1.09-1.64c0.15-0.38,0.39-0.72,0.58-1.09l-0.67,0c-0.16,0.33-0.4,0.62-0.63,0.92
		c-0.27,0.06-0.46-0.23-0.64-0.41c-0.15-0.17-0.29-0.34-0.43-0.51l-0.85,0c0.33,0.33,0.66,0.66,1.01,0.97
		c0.19,0.28,0.54,0.6,0.28,0.97c-0.26,0.6-0.88,1.02-1.36,1.5c-0.09,0.08-0.22,0.11-0.35,0.08c-0.42-0.7-0.73-1.44-1.1-2.16
		c-0.2-0.3-0.29-0.66-0.46-0.97c-0.06-0.14-0.15-0.26-0.23-0.39l-0.66,0c0.09,0.19,0.19,0.39,0.29,0.58
		c0.33,0.53,0.51,1.12,0.79,1.67c0.33,0.51,0.6,1.06,0.97,1.56c0.03,0.07,0.04,0.14,0,0.2c-0.38,0.36-0.85,0.55-1.31,0.75
		c-0.37,0.11-0.73,0.27-1.14,0.26c-0.11-0.03-0.21-0.11-0.22-0.24c-0.24-1.25-0.26-2.61-0.48-3.88c-0.04-0.29-0.05-0.6-0.08-0.91
		l-1.51,0l0.17,0.11c0.32,0.28,0.79,0.52,0.77,1c0.15,0.55,0.23,1.33-0.14,1.81c-0.22,0.57-0.64,1.22-1.25,1.46
		c-0.54,0.33-1.7,0.36-2.2-0.01c-0.81-0.48-1.21-2.34-0.8-3.14c0.17-0.41,0.65-0.93,1.16-1.24l-1.41,0
		c-0.73,0.68-1.09,1.56-1.15,2.53l-0.14,0.95c-0.29,0.33-0.33,0.79-0.64,1.1c-0.45,0.06-0.77-0.26-1.13-0.48
		c-0.23-0.22-0.2-0.6-0.09-0.88c0.23-0.63,0.76-1.15,0.97-1.79c0.29-0.46,0.45-0.97,0.73-1.43l-0.57,0c-0.25,0.55-0.5,1.1-0.8,1.62
		c-0.24,0.31-0.31,0.7-0.54,1.01c-0.2,0.21-0.21,0.63-0.58,0.66c-0.57-0.17-1.05-0.65-1.44-1.12c-0.11-0.51,0.25-0.91,0.48-1.32
		c0.24-0.28,0.45-0.56,0.67-0.85l-0.75,0c-0.16,0.18-0.33,0.36-0.51,0.51c-0.23,0.11-0.36,0.44-0.66,0.34
		c-0.23-0.24-0.42-0.54-0.57-0.85L219.94,205.73L219.94,205.73z M243.26,205.73c-0.01,0.07-0.03,0.14-0.04,0.2
		c-0.18,0.48-0.32,0.97-0.53,1.43c-0.26,0.49-0.39,1.03-0.73,1.5c-0.39,0.57-0.73,1.17-1.22,1.69l-0.61,0.69
		c-0.57,0.38-1.03,1-1.61,1.39c-0.33,0.23-0.61,0.54-0.97,0.73c-0.2,0.12-0.41,0.25-0.61,0.37l1.05,0c0.44-0.27,0.84-0.65,1.27-0.95
		c0.88-1.01,2.06-1.86,2.73-2.98c0.74-0.94,1.23-1.99,1.66-3.07c0.17-0.32,0.29-0.65,0.39-1L243.26,205.73L243.26,205.73z
		 M245.1,205.73c-0.06,0.18-0.12,0.36-0.18,0.54c-0.39,0.98-0.77,1.96-1.35,2.87c-0.49,1-1.17,1.91-1.81,2.84
		c-0.43,0.56-1.03,0.98-1.5,1.48c-0.08,0.09-0.16,0.18-0.24,0.27l0.81,0c0.31-0.33,0.62-0.65,0.95-0.95
		c0.3-0.39,0.61-0.79,0.95-1.17c0.5-0.68,1-1.38,1.35-2.13c0.25-0.43,0.5-0.86,0.7-1.31c0.45-0.75,0.69-1.58,0.92-2.43L245.1,205.73
		L245.1,205.73z M227.31,209.81c0.26,0.57,0.87,0.75,1.37,0.99c0.42,0.07,0.79,0.27,1.22,0.33c0.11,0.04,0.09,0.15,0.1,0.24
		c-0.12,0.34-0.57,0.14-0.86,0.18c-0.48-0.15-1-0.19-1.46-0.41c-0.41-0.08-0.8-0.22-1.14-0.48c-0.08-0.04-0.03-0.14-0.02-0.2
		c0.1-0.29,0.2-0.57,0.36-0.84c0.03-0.1,0.11-0.2,0.11-0.2L227.31,209.81L227.31,209.81z M233.01,209.29
		c0.06,0.56,0.16,1.1,0.21,1.66c0,0.14-0.14,0.23-0.25,0.29c-0.31,0.17-0.67,0.21-1.04,0.26c-0.36,0.02-0.77,0.15-1.11-0.01
		c-0.12-0.15-0.07-0.36,0.03-0.51c0.38-0.35,0.9-0.33,1.25-0.74c0.38-0.27,0.49-0.68,0.72-1.03
		C232.9,209.1,233.01,209.21,233.01,209.29L233.01,209.29z"/>
	<path class="st0" d="M213.91,203.73c0.1,0.68,0.25,1.35,0.43,2l0.71,0c-0.19-0.66-0.35-1.34-0.53-2L213.91,203.73L213.91,203.73z
		 M215.87,203.73c0.02,0.09,0.02,0.18,0.01,0.24c-0.07,0.26,0.28,0.96,0.31,1.21l0.15,0.55h0.69c-0.01-0.06-0.02-0.12-0.02-0.18
		c-0.08-0.37-0.2-0.72-0.23-1.1c0.08-0.36,0.48-0.18,0.74-0.21c0.24,0,0.44-0.12,0.68-0.12c0.41,0.05,1.02-0.17,1.2,0.34
		c0.11,0.45,0.31,0.87,0.54,1.28l1.22,0c-0.12-0.27-0.2-0.56-0.23-0.84c0.03-0.17,0.04-0.39,0.23-0.44c0.46-0.2,1.13,0.09,1.64,0.01
		l0.41,0.02c0.17,0.02,0.35,0.05,0.46,0.16c-0.01,0.24-0.23,0.4-0.34,0.6c-0.15,0.16-0.29,0.32-0.43,0.48l0.75,0
		c0.23-0.3,0.46-0.61,0.73-0.89c0.48-0.47,1.24-0.57,1.87-0.36c0.06,0.05,0.08,0.13,0.08,0.2c-0.04,0.26-0.24,0.46-0.32,0.72
		c-0.05,0.11-0.1,0.22-0.15,0.33l0.57,0c0.04-0.06,0.08-0.12,0.12-0.17c0.23-0.41,0.42-0.87,0.85-1.15
		c0.47-0.21,1.04-0.07,1.35,0.34c0.14,0.07,0.2-0.1,0.32-0.11c0.23-0.08,0.47-0.11,0.69,0.02c0.09,0.11,0.2,0.19,0.36,0.17
		c0.27-0.01,0.47-0.2,0.72-0.28c0.38-0.05,0.86-0.11,1.21,0.08c0.18,0.21,0.17,0.5,0.23,0.76c0.02,0.08,0.02,0.17-0.04,0.23
		c-0.2,0.09-0.15-0.12-0.48-0.23c0,0-0.54-0.23-0.75-0.32c-0.39-0.17-0.85-0.03-1.27-0.05c-0.57,0.15-1.24,0.2-1.72,0.59
		c-0.05,0.04-0.1,0.09-0.15,0.13l1.41,0c0.25-0.15,0.5-0.25,0.73-0.26c0.52-0.03,1.03,0.05,1.49,0.21l0.07,0.05h1.51
		c-0.01-0.15-0.03-0.3-0.05-0.44c-0.05-0.18-0.04-0.41,0.02-0.57c0.19-0.2,0.54-0.12,0.7,0.08c0.21,0.3,0.36,0.62,0.52,0.94l0.66,0
		c-0.15-0.23-0.3-0.47-0.31-0.76c0.01-0.11,0.11-0.2,0.2-0.25c0.38-0.05,0.79-0.02,1.17,0.01l0.28,0.13
		c0.3,0.29,0.59,0.59,0.87,0.88l0.85,0c-0.21-0.25-0.43-0.49-0.7-0.7c-0.11-0.14-0.29-0.27-0.27-0.46l0.11-0.08
		c0.79-0.04,1.59-0.25,2.37-0.04l0.28,0.11l0.06,0.11c0.08,0.4,0,0.74-0.16,1.06l0.67,0c0.08-0.16,0.15-0.32,0.2-0.48
		c0.17-0.35,0.24-0.74,0.47-1.07c0.48-0.17,1.06-0.12,1.59-0.17l0.94,0.02c0.14,0.13,0.02,0.34-0.01,0.5
		c-0.1,0.4-0.22,0.79-0.31,1.2l0.78,0c0.15-0.49,0.26-0.99,0.45-1.47c0.08-0.06,0.14-0.3,0.18-0.53L215.87,203.73L215.87,203.73z
		 M245.56,203.73c-0.01,0.03-0.01,0.05-0.01,0.07c-0.06,0.68-0.25,1.31-0.45,1.93l0.6,0c0.03-0.11,0.06-0.22,0.09-0.33
		c0.13-0.55,0.22-1.11,0.31-1.67L245.56,203.73L245.56,203.73z"/>
	<path class="st0" d="M213.65,201.73c0.02,0.65,0.02,1.31,0.24,1.86c0.01,0.05,0.01,0.09,0.02,0.14l0.6,0
		c-0.03-0.09-0.05-0.18-0.08-0.27c-0.04-0.16-0.11-0.39,0.05-0.51c0.21-0.13,0.39,0.37,0.62,0.17c0.14-0.2,0.5-0.47,0.56-0.21
		c0.07,0.29,0.18,0.6,0.22,0.83l28.8,0c0.03-0.19,0.05-0.37,0.05-0.44c0.01-0.09,0-0.19,0.06-0.26c0.14-0.07,0.28,0.1,0.44,0.12
		c0.16,0.02,0.33-0.1,0.45-0.05c0.09,0.13-0.07,0.44-0.12,0.63l0.53,0c0.05-0.29,0.1-0.58,0.15-0.87c0.11-0.36,0.11-0.74,0.13-1.13
		l-0.75,0c0.03,0.02,0.05,0.03,0.07,0.06l0.05,0.21c0.06,0.14-0.02,0.28-0.1,0.39c-0.13,0.11-0.27,0.21-0.44,0.17
		c-0.18-0.02-0.31-0.19-0.4-0.33c-0.03-0.08,0.07-0.42,0.12-0.49c0,0,0,0,0,0l-0.96,0c0.03,0.47,0.17,0.89,0.11,1.37
		c-0.05,0.13-0.2,0.18-0.32,0.22c-0.26,0.08-0.51-0.02-0.79,0.01c-0.82,0.03-1.65,0.15-2.47,0.08c-0.38,0.04-0.82,0.01-1.19,0.07
		c-0.37,0.12-0.82,0.04-1.21,0.11c-0.37-0.06-0.73,0.03-1.11-0.01c-0.59-0.08-1.25-0.06-1.84,0.01c-0.99-0.07-2-0.01-3.01-0.04
		c-0.57-0.08-1.2,0.02-1.8,0.02c-0.92-0.07-1.84,0.06-2.73,0c-1.48-0.04-3.01,0-4.49-0.02c-0.64,0.02-1.2-0.2-1.86-0.11
		c-1.01-0.08-2.09-0.04-3.03-0.29c-0.39,0.04-0.83,0.01-1.22,0.02c-0.11-0.01-0.14-0.13-0.16-0.21c-0.07-0.41-0.25-0.8-0.33-1.21
		l-1.03,0c0.04,0.09,0.06,0.17,0.03,0.18l-0.25,0.34c-0.11,0.11-0.37,0.09-0.55,0.06c-0.12,0.01-0.17-0.14-0.23-0.22
		c-0.03-0.05-0.07-0.22-0.09-0.37L213.65,201.73L213.65,201.73z"/>
	<path class="st0" d="M213.72,199.73c-0.09,0.42-0.1,0.88-0.12,1.32c0.03,0.22,0.04,0.45,0.05,0.68l0.73,0
		c-0.01-0.09-0.02-0.17-0.01-0.21c0.04-0.06,0.13-0.24,0.2-0.25c0.15-0.02,0.44-0.02,0.56,0.04c0.11,0.03,0.26,0.25,0.34,0.42h1.03
		c-0.06-0.3-0.07-0.61,0.04-0.93c0.06-0.12,0.18-0.25,0.31-0.28c1.01,0.01,2.05-0.05,3.07-0.02c0.21-0.09,0.45,0.02,0.67-0.03
		c0.75-0.11,1.48,0.05,2.24,0.02c0.7-0.13,1.33,0.19,2.03,0.16c0.61-0.2,1.38-0.09,2.03-0.07c0.38,0,0.76-0.12,1.13-0.01
		c0.4,0.05,0.83,0.02,1.21-0.06c0.76,0.04,1.5-0.05,2.25-0.07c0.21-0.04,0.4,0.05,0.61,0.01c0.6-0.06,1.16,0,1.75-0.08
		c0.97,0.07,2,0,2.96,0.09c0.29-0.06,0.63-0.01,0.92-0.01c1.4-0.11,2.89-0.11,4.31-0.11c0.44-0.07,0.93-0.02,1.38-0.08
		c0.13,0.02,0.26,0.05,0.35,0.14c0.18,0.3,0.16,0.7,0.19,1.06c0,0.09,0,0.17,0.01,0.25l0.96,0c0.19-0.15,0.5-0.13,0.69,0l0.75,0
		c0-0.13,0.01-0.25,0.02-0.38c-0.02-0.55-0.06-1.09-0.12-1.62l-0.58,0c0.09,0.68,0.15,1.46,0.15,1.46s-0.23-0.18-0.38-0.16
		c-0.16,0.02-0.54,0.23-0.56,0.2c0.01-0.38-0.02-0.79-0.1-1.17c-0.04-0.1-0.06-0.21-0.07-0.32l-1.5,0c-0.04,0.01-0.07,0.03-0.1,0.05
		c-0.36,0.03-0.73,0.02-1.07,0.08c-0.37-0.08-0.73,0.05-1.1,0l-0.05-0.04c0-0.03,0-0.06-0.01-0.09l-0.53,0
		c0,0.03-0.01,0.06-0.02,0.09c-0.11,0.17-0.34,0.13-0.51,0.11c-0.12-0.01-0.21-0.08-0.33-0.11l-0.5-0.04
		c-0.04-0.01-0.08-0.03-0.11-0.05l-0.74,0c0.09,0.06,0.19,0.12,0.27,0.2c0.05,0.1-0.08,0.08-0.12,0.11
		c-0.35-0.05-0.72-0.06-1.09-0.07c-0.21-0.08-0.42-0.19-0.66-0.19c-0.03-0.02-0.06-0.03-0.1-0.05l-0.66,0
		c0.09,0.06,0.19,0.12,0.29,0.17c-0.03,0.06-0.13,0.04-0.19,0.06c-0.3-0.03-0.63-0.01-0.91-0.1c-0.1-0.04-0.19-0.08-0.29-0.13
		l-1.14,0c0,0.02,0,0.04-0.01,0.05c-0.12,0.08-0.26,0.11-0.41,0.12c-0.13,0-0.27,0.02-0.36-0.08c-0.02-0.03-0.05-0.06-0.07-0.09
		l-0.66,0c-0.03,0.08-0.09,0.17-0.2,0.17c-0.14-0.02-0.29-0.05-0.39-0.17l-0.53,0c0,0.04,0,0.08-0.01,0.12
		c-0.04,0.11-0.16,0.1-0.25,0.12c-0.13,0-0.19-0.13-0.24-0.24l-0.44,0c0,0.14-0.04,0.28-0.16,0.36c-0.11,0-0.27,0.03-0.33-0.1
		c-0.07-0.08-0.09-0.17-0.07-0.26l-0.46,0c-0.04,0.15-0.12,0.29-0.29,0.36c-0.22,0.02-0.42-0.01-0.61-0.07
		c-0.05-0.04-0.04-0.12-0.01-0.17c0.03-0.04,0.06-0.08,0.09-0.12l-0.58,0c-0.03,0.04-0.05,0.08-0.07,0.11
		c-0.16,0.25-0.48,0.08-0.71,0.14c-0.08,0-0.05-0.11-0.04-0.16c0.01-0.03,0.03-0.06,0.04-0.09l-0.59,0
		c-0.05,0.06-0.1,0.11-0.15,0.17c-0.36,0.19-0.86,0.15-1.28,0.11c-0.07-0.04-0.1-0.12-0.06-0.19c0.04-0.03,0.09-0.06,0.13-0.09
		l-1.33,0c-0.42,0.13-0.92,0.13-1.33,0h-3.04c-0.09,0.04-0.23-0.02-0.32,0.02c-0.37,0.08-0.78,0.02-1.16,0.02
		c-0.17,0-0.34-0.02-0.51-0.04l-1.41,0c-0.07,0.35-0.13,0.7-0.2,1.04c-0.13,0.08-0.24-0.07-0.37-0.11c-0.12-0.13-0.26-0.3-0.46-0.21
		c-0.13,0.03-0.26,0.06-0.35,0.17c-0.05,0.02-0.1-0.02-0.11-0.07c0.01-0.28,0.04-0.55,0.08-0.83L213.72,199.73L213.72,199.73z"/>
	<path class="st0" d="M214.07,197.73c-0.06,0.24-0.09,0.49-0.08,0.75c-0.2,0.28-0.17,0.65-0.21,1c-0.02,0.08-0.04,0.16-0.06,0.25
		l0.68,0c0.07-0.53,0.19-1.05,0.27-1.58c0.04-0.14,0.07-0.28,0.1-0.42L214.07,197.73L214.07,197.73z M216.17,197.73
		c-0.09,0.42-0.18,0.84-0.22,1.28c-0.05,0.24-0.1,0.48-0.14,0.72l1.41,0c-0.18-0.02-0.36-0.06-0.53-0.1
		c-0.11-0.14-0.2-0.27-0.16-0.46c-0.02-0.52,0.1-0.98,0.24-1.43L216.17,197.73L216.17,197.73z M219.89,197.73
		c-0.24,0.63-0.37,1.3-0.61,1.93c-0.02,0.03-0.04,0.05-0.07,0.07l3.04,0c-0.01,0-0.03-0.01-0.04-0.01c-0.07-0.05-0.02-0.14,0-0.19
		c0.66-0.53,1.47-0.68,2.2-1.05c0.46-0.11,0.83-0.44,1.28-0.59c0.13-0.04,0.24-0.1,0.35-0.16l-0.9,0c-0.18,0.08-0.35,0.16-0.54,0.22
		c-0.67,0.26-1.34,0.53-1.98,0.85c-0.51,0.21-0.98,0.6-1.58,0.51c-0.07-0.05-0.13-0.12-0.07-0.2c0.53-0.46,1.22-0.56,1.83-0.86
		c0.19-0.08,0.7-0.29,1.27-0.53l-1.31,0c-0.54,0.15-1.04,0.42-1.62,0.44c-0.08-0.04-0.2-0.09-0.22-0.2
		c-0.01-0.1,0.01-0.18,0.05-0.25L219.89,197.73L219.89,197.73z M226.89,197.73c-0.12,0.08-0.24,0.16-0.39,0.26
		c-0.83,0.67-1.77,1.06-2.64,1.63c-0.09,0.04-0.18,0.08-0.28,0.11l1.33,0c0.74-0.5,1.4-1.2,2.14-1.71c0.13-0.18,0.27-0.22,0.35-0.29
		L226.89,197.73L226.89,197.73z M227.86,197.73c-0.01,0.01-0.02,0.02-0.03,0.03c-0.17,0.22-0.33,0.45-0.46,0.69
		c-0.32,0.45-0.74,0.86-1.12,1.28l0.59,0c0.15-0.29,0.43-0.49,0.67-0.75c0.17-0.26,0.37-0.47,0.52-0.75
		c0.11-0.07,0.17-0.19,0.16-0.32c0-0.09-0.02-0.07-0.08-0.14c-0.04-0.01-0.08-0.03-0.11-0.04L227.86,197.73L227.86,197.73z
		 M228.78,197.73c0.23,0.12,0.46,0.22,0.72,0.26c0.24-0.01,0.5,0.03,0.72-0.04c0.13,0.1,0.34-0.05,0.42,0.12
		c0.03,0.24,0.16,0.44,0.24,0.66c-0.07,0.36,0.11,0.66,0.1,1l0.53,0c-0.01-0.02-0.02-0.03-0.03-0.05c-0.11-0.42-0.25-0.85-0.27-1.31
		c-0.06-0.14-0.15-0.28-0.14-0.43c0.11-0.08,0.2,0.05,0.26,0.13c0.24,0.55,0.82,0.97,0.79,1.62c0,0.01-0.01,0.02-0.01,0.04l0.66,0
		c-0.46-0.6-0.77-1.26-1.17-1.89c-0.02-0.05,0.01-0.09,0.05-0.11L228.78,197.73L228.78,197.73z M231.78,197.73
		c0.09,0.06,0.09,0.22,0.24,0.23c0.3,0.25,0.6,0.57,0.89,0.88c0.26,0.25,0.47,0.54,0.68,0.79c0.01,0.03,0.02,0.06,0.02,0.1l1.14,0
		c-0.29-0.15-0.57-0.34-0.84-0.54c-0.57-0.44-1.01-1.05-1.59-1.46L231.78,197.73L231.78,197.73z M232.8,197.73
		c0.48,0.19,0.84,0.63,1.29,0.88c0.44,0.31,0.97,0.43,1.37,0.85c0.13,0.09,0.25,0.19,0.38,0.28l0.66,0
		c-0.57-0.29-1.08-0.69-1.59-1.12c-0.52-0.1-0.91-0.52-1.35-0.83c-0.03-0.01-0.05-0.03-0.08-0.04L232.8,197.73L232.8,197.73z
		 M234.26,197.73c0.07,0.04,0.14,0.07,0.22,0.08c0.39,0.13,0.79,0.23,1.13,0.48c0.26,0.09,0.45,0.33,0.71,0.44
		c0.45,0.3,1.04,0.22,1.43,0.66c0.13,0.16,0.29,0.24,0.45,0.34l0.74,0c-0.19-0.11-0.33-0.32-0.54-0.42
		c-0.17-0.05-0.33-0.15-0.45-0.29c-0.31-0.05-0.54-0.27-0.82-0.39c-0.28-0.17-0.58-0.28-0.87-0.42c-0.25-0.23-0.56-0.33-0.84-0.49
		L234.26,197.73L234.26,197.73z M236.03,197.73c0.04,0.02,0.08,0.03,0.12,0.04l0.23,0.03c0.17,0.22,0.48,0.12,0.69,0.23
		c0.38,0.13,0.79,0.17,1.1,0.42c0.49,0.09,0.93,0.3,1.41,0.4c0.26,0.19,0.56,0.36,0.79,0.57c0.04,0.08,0.04,0.19,0.03,0.29l0.53,0
		c-0.04-0.49-0.08-0.97-0.35-1.37c-0.08-0.21-0.15-0.42-0.23-0.63l-0.85,0c0.19,0.15,0.21,0.39,0.24,0.61
		c-0.04,0.08-0.11,0.14-0.21,0.11c-0.74-0.14-1.37-0.52-2.09-0.73L236.03,197.73L236.03,197.73z M243.3,197.73
		c0.04,0.09,0.08,0.18,0.12,0.26c0.1,0.48,0.4,0.88,0.42,1.4c-0.03,0.3-0.37,0.26-0.6,0.34l1.5,0c-0.02-0.17-0.02-0.35-0.1-0.5
		c-0.13-0.5-0.26-1.01-0.41-1.5L243.3,197.73L243.3,197.73z M245.33,197.73c0.11,0.43,0.19,0.87,0.26,1.32
		c0.04,0.18,0.08,0.42,0.12,0.68l0.58,0c-0.06-0.55-0.15-1.09-0.27-1.62c-0.03-0.13-0.06-0.26-0.09-0.38L245.33,197.73
		L245.33,197.73z M228.21,199.73c0.28-0.39,0.61-0.77,0.81-1.2c0.11-0.19-0.09-0.3-0.12-0.46c-0.06-0.05-0.14-0.09-0.22-0.08
		c-0.17,0.2-0.23,0.46-0.35,0.69c-0.18,0.37-0.47,0.7-0.7,1.05L228.21,199.73L228.21,199.73z M229.49,199.73
		c0.01-0.1,0.06-0.21,0.07-0.3c0.12-0.29,0.11-0.63,0.2-0.94c0.01-0.09-0.07-0.17-0.15-0.2c-0.14-0.02-0.27,0.01-0.33,0.14
		c-0.15,0.2-0.03,0.48-0.09,0.71c-0.09,0.17-0.1,0.4-0.16,0.59L229.49,199.73L229.49,199.73z M230.48,199.73
		c-0.01-0.02-0.02-0.04-0.03-0.06c-0.1-0.35,0.02-0.72,0.08-1.06c-0.02-0.13-0.09-0.27-0.23-0.31c-0.1-0.01-0.22,0.02-0.26,0.11
		c-0.04,0.2-0.12,0.46,0.03,0.63c0.02,0.17-0.04,0.31-0.05,0.46c0.02,0.07,0.03,0.14,0.03,0.22L230.48,199.73L230.48,199.73z"/>
	<path class="st0" d="M214.41,196.48c-0.01,0.02-0.01,0.04-0.02,0.06c-0.08,0.41-0.22,0.79-0.32,1.2l0.7,0
		c0.06-0.26,0.11-0.52,0.16-0.78l0.18-0.47H214.41L214.41,196.48z M216.47,196.48c-0.05,0.15-0.09,0.3-0.14,0.45
		c-0.04,0.27-0.1,0.54-0.16,0.8l0.6,0c0.13-0.41,0.28-0.82,0.37-1.25L216.47,196.48L216.47,196.48z M220.54,196.48
		c-0.18,0.27-0.29,0.57-0.47,0.83c-0.06,0.14-0.12,0.27-0.17,0.42l1.07,0c0.03-0.06,0.08-0.11,0.12-0.17
		c0.26-0.07,0.47-0.24,0.73-0.32c0.8-0.03,2.46-0.53,3.35-0.76l-2.04,0c-0.42,0.08-0.85,0.14-1.3,0.18
		c-0.12-0.04-0.26-0.03-0.38-0.08c0.01-0.03,0.02-0.06,0.03-0.09L220.54,196.48L220.54,196.48z M226.45,196.48
		c-0.17,0.05-0.31,0.09-0.37,0.09c-0.48,0.1-2.84,0.96-3.28,1.15c-0.02,0-0.04,0.01-0.06,0.01l1.31,0c0.88-0.37,1.91-0.79,2.22-0.9
		c0.09-0.08,0.56-0.24,0.72-0.35L226.45,196.48L226.45,196.48z M227.57,196.48c0.1,0.37,0.29,0.7,0.64,0.94
		c0.19,0.1,0.38,0.21,0.57,0.31l2.87,0c0.02-0.01,0.03-0.01,0.05-0.02c0.04,0,0.06,0,0.09,0.02l0.53,0
		c-0.02-0.01-0.03-0.02-0.05-0.03c-0.08-0.05-0.15-0.14-0.15-0.24c0.01-0.05,0.05-0.09,0.11-0.11c0.2,0.01,0.3,0.26,0.47,0.34
		c0.04,0.01,0.07,0.02,0.11,0.04h0.69c-0.35-0.19-0.66-0.47-1.03-0.62c-0.07-0.05-0.14-0.14-0.08-0.23c0.05-0.14,0.13-0.27,0.19-0.4
		l-0.42,0c-0.09,0.23-0.23,0.43-0.44,0.61c-0.25,0.22-0.59,0.2-0.9,0.27c-0.73,0.17-1.41-0.06-1.96-0.48
		c-0.21-0.09-0.34-0.23-0.43-0.4L227.57,196.48L227.57,196.48z M234.21,196.48c0.13,0.03,0.25,0.07,0.37,0.12
		c0.68,0.2,1.44,0.21,2.12,0.44c0.53,0.08,1,0.29,1.53,0.38c0.4,0.11,0.81,0.2,1.22,0.28c0.02,0.01,0.03,0.02,0.05,0.03l0.85,0
		c-0.08-0.22-0.18-0.44-0.32-0.64c-0.06-0.22-0.16-0.41-0.28-0.61l-0.67,0c0.12,0.21,0.25,0.42,0.28,0.67
		c-0.02,0.07-0.1,0.11-0.17,0.11c-0.35-0.05-0.66-0.2-1-0.28c-0.49-0.08-0.92-0.3-1.44-0.3c-0.27-0.03-0.51-0.12-0.76-0.19
		L234.21,196.48L234.21,196.48z M242.84,196.48c0.15,0.42,0.29,0.84,0.46,1.25l0.93,0c-0.13-0.43-0.29-0.85-0.48-1.25L242.84,196.48
		L242.84,196.48z M244.97,196.48c0.13,0.41,0.25,0.83,0.36,1.25l0.58,0c-0.12-0.43-0.27-0.84-0.44-1.25L244.97,196.48L244.97,196.48
		z M226.04,197.73c0.3-0.17,0.56-0.4,0.86-0.54c0.16-0.07-0.01-0.33-0.14-0.28c-0.57,0.21-1.08,0.56-1.62,0.82L226.04,197.73
		L226.04,197.73z M227.38,197.73c0.04-0.04,0.07-0.08,0.06-0.16c-0.1-0.1-0.22-0.14-0.26-0.06c-0.09,0.08-0.18,0.15-0.29,0.22
		L227.38,197.73L227.38,197.73z M227.99,197.73c-0.05-0.02-0.09-0.03-0.13,0L227.99,197.73L227.99,197.73z M235.42,197.73
		c-0.02-0.01-0.04-0.03-0.06-0.04c-0.38-0.08-0.73-0.2-1.07-0.39c-0.31-0.04-0.57-0.18-0.88-0.23c-0.1,0-0.23-0.02-0.24,0.1
		c0.03,0.32,0.36,0.25,0.58,0.36c0.18,0.02,0.34,0.12,0.51,0.21L235.42,197.73L235.42,197.73z M237.45,197.73
		c-0.01,0-0.02-0.01-0.03-0.01c-0.57-0.2-1.15-0.36-1.72-0.54c-0.49-0.12-1-0.17-1.45-0.4c-0.12-0.04-0.28-0.03-0.39,0.02
		c-0.06,0.03-0.09,0.11-0.04,0.17c0.26,0.23,0.66,0.16,0.94,0.35c0.42,0.15,0.85,0.27,1.27,0.42L237.45,197.73L237.45,197.73z"/>
	<path class="st0" d="M214.89,195.22c-0.19,0.41-0.35,0.82-0.49,1.25l0.7,0l0.25-0.65c0.12-0.2,0.22-0.4,0.32-0.6L214.89,195.22
		L214.89,195.22z M216.88,195.22c-0.16,0.41-0.28,0.83-0.41,1.26l0.67,0c0,0,0-0.01,0-0.01c0.07-0.44,0.26-0.84,0.44-1.24
		L216.88,195.22L216.88,195.22z M221.47,195.22c-0.08,0.09-0.15,0.19-0.23,0.28c-0.22,0.22-0.45,0.45-0.54,0.74
		c-0.07,0.07-0.12,0.15-0.17,0.23l0.93,0c0.07-0.18,0.21-0.26,0.36-0.43c0.18-0.21,4.21-0.18,4.29-0.51
		c0.14-0.21-3.95,0.09-3.58-0.3c0.01-0.01,0.01-0.01,0.02-0.02L221.47,195.22L221.47,195.22z M227.49,195.22
		c-0.01,0.05-0.01,0.11,0.01,0.17c-0.03,0.37-0.03,0.74,0.06,1.08l0.86,0c-0.12-0.2-0.18-0.44-0.25-0.66
		c-0.02-0.21,0.02-0.41,0.08-0.6L227.49,195.22L227.49,195.22z M228.83,195.22c-0.04,0.05-0.08,0.1-0.09,0.15
		c-0.08,0.11-0.09,0.37-0.29,0.32c-0.17-0.17-0.06-0.32,0.03-0.48L228.83,195.22L228.83,195.22z M229.45,195.22
		c-0.06,0.05-0.14,0.05-0.22,0.03c-0.01-0.01-0.02-0.02-0.03-0.02L229.45,195.22L229.45,195.22z M230.53,195.22
		c-0.03,0.15-0.12,0.29-0.15,0.44c-0.05,0.04-0.11,0.04-0.17,0.04c-0.06-0.15-0.07-0.32-0.11-0.48L230.53,195.22L230.53,195.22z
		 M231.56,195.22C231.56,195.22,231.56,195.22,231.56,195.22c-0.02,0.15-0.07,0.3-0.2,0.37c-0.18-0.04-0.03-0.3-0.24-0.35
		c-0.17-0.08-0.17,0.23-0.32,0.05c-0.02-0.02-0.04-0.05-0.05-0.08L231.56,195.22L231.56,195.22z M231.9,195.22
		c0.02,0.12,0.04,0.24,0.11,0.34c0.1,0.03,0.27-0.01,0.28,0.15c0,0.27-0.04,0.53-0.13,0.76h0.42c0.04-0.09,0.08-0.19,0.09-0.29
		c0.12-0.16,0.27,0.01,0.39,0.03c0.37,0.12,0.78,0.17,1.16,0.26h1.79c-0.18-0.05-0.37-0.1-0.57-0.11c-0.35-0.11-0.72-0.2-1.13-0.21
		c-0.55-0.14-1.2-0.11-1.58-0.61c-0.03-0.12,0.03-0.23,0.14-0.26c0.51-0.02,1-0.05,1.49-0.06L231.9,195.22L231.9,195.22z
		 M235.63,195.22c0.18,0.01,0.37,0.02,0.55,0.03l0.58-0.03c0.06,0,0.13,0,0.19,0L235.63,195.22L235.63,195.22z M237.79,195.22
		c0.18,0.01,0.34,0.04,0.5,0.1c0.05,0.06,0.17,0.13,0.15,0.23c-0.57,0.08-1.26,0.17-1.86,0.04c-0.38,0.02-0.75-0.01-1.15,0.02
		c-0.29,0.08-0.64-0.21-0.84,0.11c-0.02,0.08,0.01,0.18,0.11,0.2c0.51,0.07,1.05,0.11,1.59,0.11c0.26-0.06,0.55-0.01,0.83-0.01
		c0.66,0.01,1.45-0.23,1.9,0.38c0.02,0.03,0.03,0.06,0.05,0.09l0.67,0c-0.13-0.21-0.27-0.42-0.39-0.63
		c-0.19-0.21-0.39-0.41-0.57-0.63L237.79,195.22L237.79,195.22z M242.33,195.22c0.05,0.12,0.09,0.24,0.12,0.36
		c0.15,0.29,0.28,0.59,0.39,0.9l0.91,0c-0.02-0.04-0.04-0.08-0.06-0.12c-0.13-0.4-0.36-0.77-0.55-1.14L242.33,195.22L242.33,195.22z
		 M244.45,195.22c0.17,0.39,0.33,0.78,0.5,1.17c0.01,0.03,0.02,0.06,0.03,0.09l0.51,0c-0.17-0.42-0.35-0.83-0.51-1.25L244.45,195.22
		L244.45,195.22z M225.15,196.48c0.08-0.02,0.15-0.04,0.22-0.06c0.11-0.17,1.58-0.16,1.5-0.5c-0.02-0.1-2.85,0.34-3.13,0.42
		c-0.21,0.05-0.42,0.09-0.64,0.13L225.15,196.48L225.15,196.48z M227,196.48c0.02-0.01,0.03-0.03,0.04-0.04
		c-0.03-0.12-0.33-0.04-0.59,0.04L227,196.48L227,196.48z"/>
	<path class="st0" d="M215.72,193.73c-0.31,0.48-0.58,0.98-0.82,1.5l0.79,0c0.25-0.51,0.47-1.03,0.83-1.5L215.72,193.73
		L215.72,193.73z M217.79,193.73c-0.11,0.15-0.21,0.3-0.31,0.45c-0.26,0.32-0.45,0.67-0.6,1.04l0.7,0c0.02-0.05,0.05-0.1,0.07-0.15
		c0.25-0.46,0.52-0.91,0.83-1.34L217.79,193.73L217.79,193.73z M223.04,193.73c-0.11,0.09-0.21,0.18-0.32,0.26
		c-0.42,0.39-0.88,0.8-1.25,1.23l1.08,0c0.31-0.3,0.91-0.18,1.36-0.18l2.01,0.07c0.35,0,0.6,0.08,0.97,0
		c0.07-0.08,0.2,0.01,0.2-0.14c0-0.18-0.47-0.06-0.7-0.18c-0.57-0.02-1.12-0.14-1.68-0.1c-0.48,0.04-0.94-0.09-1.41-0.11
		c-0.05-0.03-0.15-0.09-0.08-0.16c0.43-0.44,2.43-0.06,2.82-0.07c0.05-0.02,0.08-0.09,0.1-0.14c-0.01-0.11-1.25-0.27-1.67-0.48
		L223.04,193.73L223.04,193.73z M225.97,193.73c0.21,0.1,0.42,0.2,0.6,0.26l0.31,0.13c0.25,0.16,0.56,0.18,0.82,0.34
		c0.14,0.3-0.16,0.49-0.2,0.77l0.76,0c0.07-0.23,0.19-0.44,0.3-0.65c0.21-0.31,0.47-0.64,0.8-0.84l-1.06,0
		c-0.16,0.18-0.31,0.41-0.57,0.31c-0.19-0.1-0.38-0.22-0.58-0.32L225.97,193.73L225.97,193.73z M231.34,193.73
		c0.09,0.05,0.18,0.12,0.27,0.18c0.2,0.11,0.37,0.29,0.54,0.45c0.07,0.05,0.04,0.16,0.03,0.23c-0.11,0.13-0.41,0.14-0.35,0.37
		c0.04,0.08,0.05,0.18,0.07,0.27l2.45,0c0.42-0.01,0.85-0.02,1.28,0l1.32,0c0.28-0.01,0.56-0.02,0.83,0l0.99,0
		c-0.18-0.2-0.34-0.41-0.49-0.63c-0.32-0.25-0.56-0.59-0.85-0.87l-0.82,0c-0.37,0.07-0.74,0.16-1.1,0.27l-0.77,0.05
		c-0.33-0.02-0.67,0.01-0.98,0.08c-0.41,0.02-0.73,0.24-1.11,0.33c-0.23-0.08-0.1-0.39-0.26-0.54c-0.02-0.07-0.01-0.13,0.02-0.19
		L231.34,193.73L231.34,193.73z M233.08,193.73c-0.05,0.02-0.1,0.04-0.15,0.06c-0.05,0.02-0.05,0.08-0.03,0.13
		c0.07,0.08,0.17,0.07,0.27,0.08c0.2-0.1,0.4-0.19,0.6-0.27L233.08,193.73L233.08,193.73z M241.56,193.73l0.36,0.53
		c0.12,0.33,0.28,0.64,0.41,0.96l0.81,0c-0.01-0.02-0.02-0.04-0.03-0.06c-0.16-0.5-0.4-0.98-0.67-1.44L241.56,193.73L241.56,193.73z
		 M243.7,193.73c0.1,0.21,0.2,0.42,0.3,0.64c0.18,0.28,0.32,0.56,0.45,0.86l0.53,0c-0.02-0.06-0.05-0.13-0.07-0.19
		c-0.28-0.4-0.42-0.87-0.63-1.3L243.7,193.73L243.7,193.73z M228.48,195.22c0.03-0.06,0.06-0.12,0.07-0.18
		c0.09-0.04,0.31-0.13,0.35,0.04c0,0.06-0.03,0.1-0.07,0.14L228.48,195.22L228.48,195.22z M229.21,195.22
		c-0.12-0.11-0.12-0.31-0.3-0.38c-0.08,0.01-0.2,0.02-0.26-0.03c-0.05-0.04-0.04-0.12-0.01-0.17c0.18-0.12,0.42-0.13,0.64-0.11
		l0.09,0.11c0.15,0.14,0.18,0.35,0.12,0.54c-0.01,0.01-0.02,0.03-0.03,0.04L229.21,195.22L229.21,195.22z M230.1,195.22
		c-0.01-0.04-0.02-0.07-0.03-0.11c-0.06-0.16-0.23-0.32-0.16-0.5c0.02-0.04,0.06-0.08,0.11-0.09c0.25-0.02,0.39,0.24,0.48,0.42
		c0.04,0.1,0.04,0.19,0.02,0.28L230.1,195.22L230.1,195.22z M230.76,195.22c-0.03-0.07-0.02-0.17,0-0.24
		c0.02-0.15,0.16-0.26,0.3-0.3c0.14-0.03,0.25,0.04,0.35,0.11c0.12,0.11,0.14,0.26,0.14,0.43L230.76,195.22L230.76,195.22z
		 M235.31,194.35c0.35-0.07,0.69-0.15,1.03-0.23c0.3,0.02,0.63-0.15,0.88,0.04c0.2,0.13,0.45,0.26,0.42,0.53
		c-0.22,0.17-0.54,0.2-0.82,0.15c-1.22-0.04-2.39,0.07-3.6,0.09l-0.54,0.04c-0.08-0.04-0.09-0.11-0.07-0.18
		c0.25,0.01,0.4-0.19,0.63-0.21c0.17-0.08,0.39-0.04,0.57-0.09l0.91-0.11L235.31,194.35L235.31,194.35z"/>
	<path class="st0" d="M217.1,191.73c0,0.01-0.01,0.02-0.01,0.02c-0.24,0.45-0.63,0.82-0.88,1.25c-0.17,0.24-0.34,0.48-0.49,0.72
		l0.79,0c0.04-0.06,0.09-0.11,0.13-0.16c0.35-0.62,0.88-1.13,1.26-1.73c0.03-0.04,0.06-0.07,0.09-0.11L217.1,191.73L217.1,191.73z
		 M219.32,191.73c-0.56,0.63-1.06,1.32-1.53,2l0.69,0c0.2-0.28,0.43-0.55,0.67-0.8c0.31-0.36,0.52-0.82,0.91-1.1
		c0.04-0.03,0.09-0.06,0.13-0.09L219.32,191.73L219.32,191.73z M226.2,191.73c-0.75,0.28-1.42,0.73-2.11,1.13
		c-0.36,0.24-0.71,0.57-1.05,0.87l1.42,0c-0.12-0.06-0.17-0.13-0.1-0.2c0.37-0.37,1.01-0.08,1.61,0.2l1.17,0
		c-0.14-0.06-0.28-0.11-0.44-0.12c-0.39-0.27-0.85-0.41-1.29-0.56c-0.07-0.02-0.04-0.1-0.03-0.14c0.12-0.19,0.3-0.01,0.45-0.02
		c0.2,0.13,0.46,0.14,0.7,0.2c0.32,0.21,0.69,0.27,1.03,0.44c0.07,0,0.12-0.05,0.14-0.11c0.02-0.09-0.05-0.16-0.12-0.2
		c-0.19,0-0.3-0.17-0.48-0.19c-0.2-0.18-0.43-0.3-0.65-0.45c-0.05-0.05-0.07-0.15-0.02-0.2c0.08-0.11,0.19-0.21,0.33-0.22
		c0.36-0.1,0.48,0.34,0.76,0.43c0.41,0.22,0.53,0.68,0.88,0.95l-0.01,0.08c-0.04,0.03-0.07,0.06-0.1,0.1l1.06,0
		c0.02-0.02,0.05-0.03,0.08-0.04c0.48-0.21,1.12-0.21,1.64-0.09c0.1,0.03,0.19,0.08,0.28,0.13l1.07,0c0.02-0.04,0.05-0.08,0.09-0.12
		c0.61-0.6,1.36-1.36,2.27-0.91l0.12,0.12c0.01,0.24-0.31,0.17-0.45,0.3c-0.46,0.17-0.91,0.4-1.36,0.6l0.7,0
		c0.36-0.15,0.73-0.3,1.08-0.49c0.62-0.22,1.28,0,1.77,0.38c0,0.03,0.03,0.07,0.01,0.1c-0.01,0-0.02,0-0.03,0.01l0.82,0
		c-0.11-0.1-0.23-0.19-0.36-0.27c-0.44-0.39-0.94-0.63-1.43-0.92c-0.44-0.25-0.94-0.33-1.36-0.6c-0.17-0.1-0.35-0.16-0.54-0.21
		l-2.18,0c0,0.01,0,0.01,0.01,0.02c-0.04,0.4-0.2,0.74-0.34,1.1c-0.05,0.03-0.05,0.08-0.11,0.07c-0.17-0.43,0.14-0.76,0.11-1.17
		c0-0.01,0.01-0.01,0.01-0.02l-0.49,0c0.01,0.29-0.06,0.55-0.13,0.81c-0.11,0.14,0.04,0.38-0.17,0.47c-0.24,0.08-0.54,0.08-0.8,0.01
		l-0.08-0.08c-0.06-0.37-0.04-0.76-0.05-1.13c-0.01-0.03-0.02-0.05-0.03-0.08L226.2,191.73L226.2,191.73z M229.96,191.73
		c0.02,0.02,0.03,0.04,0.04,0.07c0.01,0.22-0.15,0.57,0.11,0.69c0.1-0.01,0.17-0.08,0.2-0.17l0.02-0.43l0.08-0.16H229.96
		L229.96,191.73z M239.8,191.73c0.6,0.51,1.05,1.16,1.63,1.75l0.04,0.13l0.08,0.12h0.87c-0.04-0.06-0.08-0.13-0.12-0.19
		c-0.23-0.24-0.35-0.52-0.52-0.79c-0.31-0.33-0.53-0.69-0.82-1.01L239.8,191.73L239.8,191.73z M242.5,191.73
		c0.29,0.39,0.55,0.79,0.81,1.19c0.12,0.27,0.26,0.54,0.39,0.81l0.57,0c-0.03-0.06-0.06-0.12-0.09-0.18
		c-0.17-0.27-0.16-0.63-0.4-0.88c-0.08-0.31-0.35-0.55-0.54-0.82c-0.05-0.04-0.1-0.08-0.15-0.13L242.5,191.73L242.5,191.73z
		 M228.76,192.39c-0.04-0.17-0.18-0.39-0.02-0.56c0.04-0.03,0.08-0.05,0.12-0.07c0.08,0.02,0.18,0,0.22,0.09
		c-0.08,0.37-0.02,0.78,0.08,1.12c-0.04,0.14-0.21,0.19-0.33,0.25c-0.26,0.05-0.32-0.28-0.53-0.37c-0.23-0.23-0.39-0.52-0.67-0.71
		c-0.03-0.05-0.02-0.13,0-0.19c0.09-0.11,0.22-0.13,0.35-0.1l0.11,0.07c0.2,0.29,0.32,0.65,0.63,0.85c0.07,0.03,0.17,0,0.19-0.08
		C228.95,192.55,228.79,192.5,228.76,192.39L228.76,192.39z M232.23,192.8c0.05,0.01,0.11,0.05,0.15,0.01
		c0.28-0.29,0.46-0.94,1-0.78c0.07,0.05,0.16,0.08,0.19,0.17c0.02,0.16-0.14,0.14-0.23,0.2c-0.39,0.42-0.85,0.72-1.25,1.13
		c-0.11,0.05-0.19-0.05-0.27-0.1c-0.33-0.37-0.02-0.85,0.07-1.22c0.15-0.17,0.2-0.48,0.49-0.45c0.13-0.02,0.23,0.03,0.34,0.07
		l-0.01,0.09c-0.2,0.22-0.39,0.45-0.54,0.69C232.13,192.67,232.17,192.74,232.23,192.8L232.23,192.8z"/>
	<path class="st0" d="M218.91,189.73c-0.05,0.06-0.1,0.11-0.15,0.17c-0.29,0.39-0.62,0.71-0.98,1.04c-0.18,0.28-0.52,0.49-0.68,0.79
		l0.9,0c0.51-0.59,1.15-1.08,1.62-1.68c0.14-0.09,0.28-0.2,0.42-0.32L218.91,189.73L218.91,189.73z M222.13,189.73
		c-0.48,0.28-0.96,0.58-1.47,0.79c-0.5,0.35-0.94,0.76-1.34,1.21l0.87,0c0.57-0.4,1.12-0.87,1.74-1.15
		c0.33-0.23,0.68-0.44,1.02-0.65c0.14-0.07,0.28-0.14,0.41-0.2L222.13,189.73L222.13,189.73z M237.32,189.73
		c0.06,0.04,0.11,0.07,0.17,0.11c0.78,0.36,1.33,1.16,2.04,1.68c0.09,0.07,0.18,0.14,0.27,0.21l1.17,0
		c-0.05-0.06-0.11-0.12-0.16-0.17c-0.35-0.22-0.58-0.63-0.97-0.81c-0.46-0.28-0.86-0.7-1.3-1.02L237.32,189.73L237.32,189.73z
		 M240.53,189.73c0.29,0.28,0.56,0.58,0.87,0.83c0.43,0.34,0.77,0.74,1.09,1.17l0.59,0c-0.26-0.25-0.41-0.58-0.71-0.82
		c-0.32-0.43-0.7-0.81-1.1-1.18L240.53,189.73L240.53,189.73z M229.5,191.73c-0.01-0.03-0.01-0.07,0-0.1
		c0.05-0.07,0.15-0.06,0.22-0.06c0.08,0.05,0.18,0.09,0.24,0.17l0.44,0l0.11-0.22c0.08-0.04,0.22-0.02,0.24,0.09
		c0,0.04,0.01,0.08,0.01,0.13l0.49,0c0.03-0.05,0.06-0.12,0.13-0.13c0.08-0.01,0.15,0.06,0.18,0.13l2.18,0
		c-0.25-0.07-0.51-0.12-0.74-0.24c-0.62-0.15-1.26-0.26-1.92-0.34l-1.87,0.01c-0.64,0.06-1.25,0.18-1.86,0.33l-0.72,0.1
		c-0.15,0.04-0.3,0.09-0.44,0.14L229.5,191.73L229.5,191.73z"/>
	<path class="st0" d="M226.16,185.73c-0.29,0.05-0.59,0.09-0.86,0.18c-0.45,0.09-0.85,0.32-1.28,0.48
		c-0.79,0.42-1.65,0.63-2.39,1.19c-0.51,0.33-0.97,0.79-1.49,1.13c-0.41,0.34-0.87,0.63-1.24,1.03l1.13,0
		c0.11-0.1,0.23-0.19,0.34-0.29l1.44-1.13c0.48-0.33,1-0.57,1.49-0.89c0.39-0.2,0.83-0.28,1.23-0.47c0.15-0.04,0.35-0.05,0.48,0.05
		c0.34,0.46,0.84,0.88,1.44,0.75c0.36-0.11,0.73-0.19,1.02-0.48c0.09-0.09,0.41-0.37,0.54-0.4c0.17-0.02,0.42,0.17,0.57,0.21
		c0.49-0.04,0.66,0.04,1.1-0.15c0.26-0.14,0.51-0.21,0.73-0.43c0.14,0,0.4,0.24,0.52,0.3c0.36,0.23,1.14,0.24,1.57,0.34
		c0.02,0.01,0.02,0.03,0.02,0.05c-0.11,0.11-0.77-0.07-0.9-0.03c-1.14-0.2-2.3,0.05-3.39,0.26c-0.95,0.29-1.98,0.42-2.89,0.8
		c-0.7,0.24-1.35,0.62-2.02,0.95c-0.41,0.14-0.8,0.35-1.18,0.57l1.24,0c0.54-0.26,1.09-0.5,1.63-0.74c0.31-0.2,0.69-0.26,0.99-0.48
		c1.2-0.5,2.58-0.57,3.88-0.82c0.31,0.05,0.54-0.08,0.84-0.07c1.03-0.04,1.99,0.15,2.93,0.36c0.35,0.13,0.7,0.28,1.06,0.41
		c0.51,0.29,1.06,0.51,1.59,0.79c0.36,0.13,0.7,0.33,1.03,0.55l1.22,0c-0.19-0.14-0.38-0.26-0.59-0.34
		c-0.74-0.39-1.5-0.73-2.22-1.17c-0.44-0.2-0.89-0.36-1.36-0.49c-0.05-0.04-0.09-0.11-0.05-0.16c0.17-0.12,0.39-0.14,0.57-0.26
		c0.17-0.2,0.41-0.32,0.53-0.55c0.65,0.27,1.27,0.6,1.9,0.94c0.79,0.31,1.56,0.71,2.25,1.25c0.36,0.2,0.66,0.48,0.96,0.78l0.74,0
		c-0.28-0.26-0.57-0.51-0.85-0.76c-0.35-0.17-0.63-0.51-0.97-0.7c-0.42-0.14-0.76-0.45-1.15-0.63c-0.57-0.31-1.12-0.65-1.73-0.89
		c-0.18-0.11-0.39-0.15-0.57-0.28c-0.43-0.19-0.82-0.46-1.29-0.57c-0.24-0.08-0.51,0.08-0.72-0.05c-0.01-0.04-0.02-0.08-0.03-0.12
		l-0.52,0c0.05,0.41,0.17,0.83,0.32,1.16c0.1,0.08,0.21,0.17,0.34,0.11c0.05-0.02,0.11-0.02,0.15-0.09
		c-0.03-0.22-0.14-0.41-0.22-0.61c0-0.06,0.07-0.08,0.11-0.08c0.23-0.02,0.38,0.17,0.6,0.19c0.03,0.02,0.02,0.25-0.03,0.39
		c-0.01,0.14-0.23,0.16-0.3,0.26c-0.08,0.1-0.17,0.13-0.29,0.13c-0.44-0.04-0.73-0.4-0.97-0.75l-0.2-0.71h-1.23
		c0.1,0.16,0.19,0.27,0.25,0.34c0.17,0.2,0.49,0.61,0.15,0.52c-0.47-0.14-0.98-0.54-1.27-0.86l-0.49,0
		c-0.32,0.33-0.87,0.73-1.23,0.86c-0.33,0.11,0.05-0.39,0.22-0.59c0.05-0.06,0.13-0.15,0.2-0.27l-0.88,0
		c-0.02,0.01-0.05,0.02-0.07,0.03c-0.12,0.05-0.24,0-0.34-0.03l-0.19,0c-0.04,0.02-0.08,0.07-0.11,0.15c-0.04,0.48-0.46,1-0.93,1.18
		c-0.26,0.04-0.6,0.16-0.85-0.01c-0.18-0.18-0.25-0.42-0.2-0.67c0.04-0.28,0.34-0.32,0.55-0.37c0.1-0.01,0.24-0.03,0.29,0.08
		c0.08,0.34-0.65,0.36-0.26,0.69c0.33,0.02,0.58-0.21,0.79-0.45c0.11-0.16,0.19-0.37,0.23-0.6L226.16,185.73L226.16,185.73z"/>
	<path class="st0" d="M227.57,185.73c0.07-0.38,0.03-0.81-0.15-1.15c0.12-0.07,0.77,0.16,0.84,0.33c0,0.22-0.04,0.48,0.18,0.59
		c0.14,0.05,0.29-0.14,0.35,0.05c0.01,0.1-0.06,0.15-0.13,0.18l0.88,0c0.17-0.27,0.34-0.72,0.33-1.49
		c-0.02-1.13-0.76-1.39-1.08-1.41c-0.32-0.02-0.54-0.03-0.42-0.16c0.12-0.13,0.65-0.15,1.03-0.07c0.38,0.08,1.21,0.81,1.21,0.81
		s0.83-0.73,1.21-0.81c0.38-0.08,1.1-0.13,1.22,0c0.12,0.13-0.09,0.12-0.4,0.14c-0.32,0.02-1.26,0.36-1.28,1.49
		c-0.01,0.73,0.17,1.2,0.35,1.49l1.23,0l-0.02-0.06c-0.15-0.14-0.37-0.04-0.55-0.1c-0.14-0.05-0.34-0.07-0.4-0.25
		c-0.02-0.11-0.06-0.28,0.07-0.32l0.11-0.09c0.01-0.07,0.17-0.07,0.26-0.06c0.21-0.02,0.26,0.32,0.49,0.26
		c0.27,0.02,0.33-0.41,0.53-0.51c0.43-0.34,0.52-0.23,0.79-0.36l0.02,0.03v0.03c-0.38,0.26-0.78,0.48-0.82,0.95
		c-0.01,0.16,0,0.32,0.02,0.49l0.52,0c-0.03-0.29,0.17-0.55,0.22-0.83c0.24-0.41,0.77-0.14,1.1-0.38c0.11-0.1,0.11-0.27,0.09-0.39
		c-0.23-0.29-0.5-0.52-0.88-0.48c-0.57,0.09-1.05,0.39-1.5,0.77c-0.26,0.21-0.49-0.09-0.74-0.14c-0.22-0.06-0.36-0.3-0.38-0.52
		c0-0.24,0.26-0.39,0.43-0.53c0.36-0.31,0.88-0.17,1.29-0.05c0.15-0.02,0.27-0.19,0.3-0.33c0.03-0.18-0.01-0.38-0.11-0.53
		c-0.17-0.1-0.34-0.18-0.54-0.21c-0.64-0.05-1.37-0.14-1.89,0.23c-0.26,0.13-0.45,0.48-0.78,0.45c-0.32-0.25-0.69-0.32-1.02-0.53
		l-0.52-0.22c-0.53-0.1-1.02,0.18-1.28,0.63c-0.07,0.25-0.23,0.61,0,0.85c0.08,0.11,0.21,0.14,0.34,0.11
		c0.19-0.02,0.23-0.23,0.34-0.35c0.08-0.08,0.19-0.06,0.29-0.05c0.18,0.05,0.37,0.21,0.44,0.39c0.08,0.25-0.11,0.45-0.27,0.61
		c-0.14,0.13-0.38,0.11-0.57,0.08c-0.63-0.38-1.31-0.96-2.12-0.6c-0.34,0.17-0.77,0.51-0.77,0.91c0.17,0.29,0.45-0.01,0.67,0
		c0.37-0.04,0.72,0.03,0.96,0.3c0.07,0.21-0.03,0.43-0.19,0.57c-0.22,0.11-0.47,0.16-0.72,0.21L227.57,185.73L227.57,185.73z
		 M228.25,185.73c-0.07-0.02-0.13-0.03-0.19,0L228.25,185.73L228.25,185.73z M230.35,185.73c0.15-0.16,0.26-0.29,0.26-0.37
		c0.01,0.08,0.09,0.22,0.23,0.37L230.35,185.73L230.35,185.73z M228.63,184.9c0.13-0.19,0.36-0.38,0.6-0.31l0.07,0.08
		c0.02,0.14,0.03,0.37-0.08,0.48c-0.14,0.11-0.39,0.07-0.57,0C228.58,185.09,228.6,184.97,228.63,184.9L228.63,184.9z"/>
	<path class="st0" d="M251.15,200.23c-0.09-0.49-0.08-1.04-0.14-1.53c-0.22-1.76-0.59-3.45-1.25-5.02
		c-0.09-0.38-0.26-0.71-0.48-1.03c-0.11-0.35-0.33-0.65-0.51-0.97l-0.05-0.12c-0.85-1.13-1.35-2.39-2.38-3.43
		c-1.08-1.1-2.15-2.36-3.43-3.2c-0.82-0.73-1.71-1.3-2.61-1.83c-0.5-0.23-0.96-0.52-1.44-0.78c-0.49-0.23-1-0.41-1.52-0.6
		c-0.85-0.37-1.87-0.37-2.74-0.69c-0.59-0.07-1.19-0.08-1.77-0.17c-0.92-0.06-1.85-0.1-2.75-0.08c-0.69-0.13-1.43-0.07-2.06,0.13
		c-0.42,0.01-0.81,0.13-1.22,0.15c-0.7-0.02-1.27,0.28-1.93,0.35c-0.24,0.05-0.42,0.23-0.67,0.23c-0.52,0.24-1.1,0.33-1.66,0.48
		c-0.44,0.07-0.8,0.36-1.23,0.48c-0.28,0.33-0.73,0.28-1.02,0.58c-1.17,0.51-2.18,1.41-3.35,1.94c-0.94,0.81-2.07,1.41-2.79,2.46
		c-0.37,0.35-0.6,0.78-0.94,1.14c-0.3,0.36-0.41,0.78-0.69,1.14c-0.2,0.55-0.67,0.99-0.85,1.54c-0.17,0.18-0.16,0.44-0.35,0.61
		c-0.17,0.43-0.42,0.82-0.6,1.24c-0.08,0.36-0.31,0.63-0.38,0.98c-0.23,0.45-0.42,0.91-0.51,1.43c-0.22,0.3-0.26,0.67-0.35,1.03
		c-0.2,1-0.55,1.95-0.61,3c-0.21,0.8-0.03,1.62-0.08,2.46c-0.15,0.26,0.05,0.51-0.03,0.79c0.16,0.45,0.12,0.97,0.18,1.45l0.07,0.11
		c0.11,0.43,0.16,0.88,0.24,1.32c0.11,0.79,0.39,1.5,0.61,2.25c0.38,0.84,0.57,1.75,0.94,2.6c0.26,0.48,0.43,1,0.76,1.46
		c0.43,0.88,1.05,1.7,1.54,2.57c0.66,0.79,1.4,1.57,2.16,2.28c1.02,1.05,2.16,1.81,3.34,2.5c0.98,0.69,2.07,1.07,3.12,1.59
		c0.65,0.23,1.28,0.48,1.94,0.69c0.58,0.08,1.04,0.45,1.65,0.48c0.45,0,0.79,0.26,1.22,0.26c1.58,0.17,3.22,0.25,4.81,0.08
		c0.78-0.08,1.58-0.13,2.33-0.26c1.41-0.15,2.71-0.54,3.97-1.04c0.66-0.42,1.41-0.67,2.13-0.94c1.16-0.61,2.35-1.16,3.39-2.05
		c0.59-0.37,1.1-0.88,1.68-1.32c0.59-0.78,1.35-1.47,1.97-2.25c0.04-0.18,0.16-0.34,0.26-0.51c0.52-0.6,0.91-1.27,1.37-1.9
		c0.21-0.46,0.6-0.85,0.68-1.37c0.19-0.39,0.95-2.5,1.19-3.13c0.2-0.94,0.49-1.79,0.59-2.77c0.05-0.92,0.26-1.8,0.21-2.75
		C251.1,201.59,251.19,200.91,251.15,200.23L251.15,200.23z M250.32,204.56c-0.08,0.18-0.01,0.38-0.06,0.57
		c-0.11,0.55-0.17,1.12-0.39,1.62c-0.34,1.32-0.76,2.61-1.3,3.85c-0.31,0.6-0.65,1.18-1.03,1.74c-0.48,0.78-1.05,1.53-1.59,2.27
		c-0.19,0.29-0.49,0.46-0.72,0.72c-0.32,0.67-1.04,1.09-1.57,1.58c-0.61,0.71-1.4,1.03-2.08,1.59c-0.77,0.65-1.71,0.91-2.53,1.44
		c-0.41,0.25-0.87,0.36-1.25,0.64c-0.34,0.09-0.63,0.29-0.97,0.36c-0.94,0.31-1.97,0.42-2.97,0.58c-0.56,0.16-1.11,0.35-1.74,0.35
		c-0.48,0.05-1,0.09-1.47,0.11c-0.39,0.03-0.78,0.16-1.16,0.04c-0.4-0.14-0.86-0.05-1.29-0.04c-0.87,0.03-1.74-0.05-2.5-0.32
		c-0.66-0.15-1.26-0.42-1.95-0.51c-0.78-0.35-1.63-0.53-2.4-0.91c-1.02-0.42-2.03-0.87-2.92-1.61c-0.53-0.44-1.16-0.7-1.67-1.21
		c-0.69-0.51-1.45-1.09-1.9-1.84c-0.33-0.23-0.54-0.6-0.74-0.92c-0.08-0.17-0.29-0.12-0.33-0.3c-0.37-0.67-0.84-1.3-1.22-1.96
		c-0.2-0.14-0.2-0.39-0.35-0.57c-0.44-0.78-0.88-1.55-1.13-2.39c-0.26-0.48-0.36-1.02-0.6-1.5c-0.13-0.47-0.25-0.94-0.3-1.44
		c-0.02-0.22-0.2-0.37-0.27-0.57c-0.21-0.92-0.24-1.88-0.38-2.83c-0.05-0.41-0.17-0.83-0.15-1.27c-0.06-0.58-0.05-1.18,0.07-1.74
		c-0.01-0.84,0.36-1.55,0.46-2.36c0.22-0.84,0.37-1.71,0.78-2.47c-0.01-0.3,0.23-0.51,0.25-0.8c0.39-0.78,0.58-1.64,1.04-2.39
		c0.27-0.72,0.85-1.31,1.1-2.05c0.24-0.56,0.7-1.01,1.03-1.53c0.35-0.37,0.68-0.81,1.11-1.07c0.25-0.19,0.48-0.42,0.68-0.64
		c0.76-0.46,1.39-1.2,2.17-1.63c0.36-0.14,0.63-0.53,1-0.64c0.52-0.36,1.08-0.61,1.63-0.89c0.82-0.31,1.53-0.88,2.4-1.03
		c0.65-0.16,1.29-0.31,1.96-0.42c0.4-0.12,0.85-0.17,1.24-0.31c0.6-0.07,1.19-0.17,1.79-0.24c0.84-0.15,1.73-0.17,2.61-0.2
		c0.63,0.05,1.25,0.04,1.86,0.12l1.11,0.19c0.36-0.08,0.69,0.05,1.03,0.08c1.08,0.11,2.08,0.42,3.03,0.87
		c0.54,0.3,1.12,0.52,1.68,0.8c1.16,0.41,2.18,1.18,3.17,2.02c0.4,0.42,0.85,0.79,1.28,1.14c0.87,0.85,1.7,1.69,2.51,2.56
		c0.29,0.41,0.59,0.81,0.84,1.23c0.45,0.63,0.94,1.28,1.25,1.99c0.69,1.21,1.07,2.55,1.42,3.89c0.67,1.74,0.66,3.72,0.7,5.67
		C250.39,202.79,250.35,203.68,250.32,204.56L250.32,204.56z"/>
	<path class="st1" d="M234.35,200.75c0.07,0.14-0.06,0.13-0.04,0.28c0.01,0.11,0.06,0.28-0.08,0.33c-0.26,0.05-0.18-0.36-0.45-0.25
		l-0.38,0.07c-0.03,0.47-0.01,1.1-0.08,1.55c0.01,0.19,0.25,0.1,0.27,0.29c0,0.1,0,0.22-0.11,0.23c-0.12,0.01-0.2,0.05-0.29-0.01
		c-0.23,0.07-0.54,0.11-0.78-0.01c-0.08-0.06-0.08-0.17-0.05-0.25c0.1-0.14,0.31-0.1,0.32-0.29c-0.01-0.48,0.11-1.08,0-1.53
		c-0.08-0.12-0.32-0.11-0.4-0.08c-0.19,0.04-0.1,0.42-0.28,0.38l-0.1-0.13l-0.04-0.55l0.06-0.05c0.7,0,1.45,0.05,2.13-0.04
		C234.15,200.71,234.28,200.67,234.35,200.75L234.35,200.75z"/>
	<path class="st1" d="M240.95,200.85c0,0.2,0.04,0.42-0.03,0.6c-0.08,0.06-0.2,0.01-0.3,0.01c-0.06-0.04,0.05-0.22,0.01-0.26
		c-0.08-0.13-0.2-0.23-0.35-0.23c-0.08,0.01-0.38,0.18-0.4,0.26c0.01,0.54,0.89,0.43,1.12,0.85c0.21,0.38,0.11,0.67-0.12,0.92
		c-0.3,0.29-0.88,0.29-1.23,0.11c-0.21-0.01-0.43,0.23-0.6,0.02l0.2-0.32c0.13-0.2,0.09-0.3,0.27-0.45l0.07,0.01
		c0.1,0.36,0.18,0.53,0.57,0.54c0.26,0.01,0.43-0.04,0.47-0.17c0.06-0.08,0.02-0.19,0-0.27c-0.26-0.36-1.06-0.31-1.24-0.73
		c-0.08-0.29-0.11-0.68,0.15-0.89c0.32-0.21,1-0.31,1.36-0.11L240.95,200.85L240.95,200.85z"/>
	<path class="st1" d="M223.61,200.78c0.1,0.17,0.06,0.43,0.04,0.63c-0.04,0.11-0.17,0.1-0.26,0.08c-0.17-0.05-0.07-0.26-0.24-0.28
		c-0.14-0.03-0.32-0.05-0.42,0.06c-0.07,0.07-0.09,0.31-0.07,0.4c0.07,0.12,0.34,0.06,0.44,0.1c0.16,0.15,0.1,0.15,0.06,0.36
		c-0.04,0.2-0.27,0-0.45,0.04c-0.11,0.13-0.07,0.58-0.01,0.71c0.27,0.07,0.63-0.04,0.76-0.15c0.13-0.11,0.16-0.28,0.3-0.32
		c0.08,0,0.18,0.04,0.19,0.13c-0.09,0.21-0.03,0.54-0.25,0.68c-0.57,0.23-1.31-0.01-1.95,0.05c-0.11-0.04-0.1-0.14-0.08-0.23
		c0.46-0.42,0.28-1.28,0.29-1.85c-0.01-0.15-0.26-0.28-0.18-0.42l0.08-0.05c0.4-0.03,0.95,0.06,1.35,0
		C223.35,200.71,223.5,200.72,223.61,200.78L223.61,200.78z"/>
	<path class="st1" d="M230.54,200.88c0.01,0.08,0.01,0.17-0.03,0.23c-0.11,0.04-0.23,0.1-0.32,0.21c0.05,0.45,0.01,0.93,0.01,1.36
		c0.08,0.11,0.28,0.08,0.31,0.25c0.06,0.14,0.03,0.26-0.08,0.33c-0.21,0.1-0.63-0.02-0.88-0.01c-0.14,0.08-0.33,0.03-0.48-0.03
		c-0.1-0.08-0.1-0.15-0.04-0.27c0.08-0.19,0.33-0.08,0.4-0.28c0.16-0.38,0.03-1.02,0.09-1.44c-0.05-0.17-0.27-0.03-0.38-0.17
		c-0.05-0.06-0.17-0.3-0.08-0.3c0.45,0,0.89-0.07,1.36-0.01C230.48,200.76,230.52,200.82,230.54,200.88L230.54,200.88z"/>
	<path class="st1" d="M219.18,200.82c0.02,0.1-0.05,0.1-0.14,0.13c-0.06-0.01-0.11,0.04-0.14,0.08c0.03,0.3,0.13,0.69,0.32,0.93
		c0.11,0.03,0.19-0.09,0.23-0.17l0.6-0.87c-0.23-0.12-0.11-0.26-0.11-0.26c0.25-0.04,0.66-0.06,0.85,0
		c0.06,0.03,0.29-0.06,0.23,0.12c-0.05,0.16-0.24,0.12-0.34,0.27c-0.46,0.65-0.9,1.47-1.27,2.08c-0.12-0.01-0.28,0.03-0.32-0.1
		l-0.01-0.25l-0.78-1.68c-0.06-0.07-0.17-0.02-0.24-0.08c-0.1-0.08-0.08-0.11-0.06-0.23c0.11-0.14,0.31-0.1,0.46-0.15
		C218.72,200.67,219.07,200.55,219.18,200.82L219.18,200.82z"/>
	<path class="st0" d="M237.95,202.75c-0.35-0.64-0.75-1.25-1-1.93c-0.05-0.09-0.13-0.2-0.23-0.2c-0.1,0.02-0.35,0.06-0.38,0.17
		c-0.11,0.75-0.56,1.35-0.93,1.99c-0.13,0.09-0.23,0.22-0.37,0.28c-0.05,0.05-0.03,0.11,0.02,0.15c0.29-0.02,0.77,0,1.08-0.01
		c0.04-0.02,0.1-0.04,0.09-0.1c-0.01-0.07-0.07-0.09-0.12-0.13c-0.04-0.04-0.02-0.09,0-0.13c0.16-0.38,0.43-0.27,0.69-0.24
		c0.17,0.06,0.46-0.07,0.5,0.26c0.01,0.1-0.14,0.02-0.2,0.05c-0.08,0.04-0.14,0.11-0.11,0.21c0,0.1,0.09,0.1,0.18,0.1
		c0.33-0.05,0.62-0.04,1.01-0.05C238.33,203.17,238.02,202.87,237.95,202.75L237.95,202.75z M236.94,202.26
		c-0.11,0.09-0.52,0.08-0.67,0.07c-0.19-0.05,0.19-0.51,0.13-0.64c0.04-0.12,0.02-0.32,0.16-0.35c0.13,0,0.11,0.21,0.15,0.35
		C236.76,201.82,236.97,202.13,236.94,202.26L236.94,202.26z"/>
	<path class="st0" d="M238.19,190.74c-0.05-0.16-0.12-0.15-0.35-0.15c-0.32,0.09-0.6,0.26-0.82,0.55c-0.36,0.26-0.72,0.57-1.12,0.73
		c-0.14,0.1-0.29,0.04-0.43,0.11c-0.01,0.04,0,0.09,0.02,0.12c0.14,0.07,0.27,0.17,0.43,0.21c0.17,0.07,0.25,0.37,0.48,0.2
		c-0.01-0.11-0.11-0.23-0.02-0.32c0.39-0.12,0.56,0.08,0.84,0.3c0.06,0.07,0.08,0.13,0.02,0.22c-0.13,0.03-0.27,0.09-0.38,0
		c-0.03,0-0.06,0.04-0.06,0.07c0.01,0.21,0.38,0.44,0.5,0.56c0.1,0.19,0.41,0.37,0.61,0.41c0.06-0.02,0.11-0.09,0.11-0.16
		c-0.14-0.38-0.25-0.07-0.08-0.44c0.06-0.11,0.21-1.78,0.27-1.88C238.17,190.95,238.19,190.74,238.19,190.74L238.19,190.74z
		 M237.41,192c-0.02,0.13-0.5-0.16-0.59-0.27c-0.05-0.05,0.32-0.3,0.34-0.35c0.17-0.12,0.2-0.21,0.39-0.3l0.03,0.03
		C237.56,191.32,237.46,191.71,237.41,192L237.41,192z"/>
	<path class="st1" d="M231.9,188.34c-0.01,0.25-0.05,0.51-0.09,0.76c-0.02,0.05-0.07,0.09-0.12,0.08c-0.12-0.01-0.29-0.02-0.26-0.55
		c-0.24-0.27-0.57-0.13-0.58,0.15c-0.03,0.81-0.15,0.93-0.07,1.48c0.12,0.14,0.12,0.35,0.3,0.45c0.04,0.08-0.02,0.16-0.1,0.17
		c-0.21,0.04-0.38-0.09-0.58-0.1c-0.26-0.02-0.52,0.05-0.76-0.03c-0.08-0.04-0.04-0.13-0.01-0.18c0.53-0.35,0.41-1.04,0.46-1.61
		c-0.01-0.09-0.06-0.18-0.14-0.22c-0.44-0.19-0.36,0.14-0.56,0.19c-0.04,0.05-0.14,0.05-0.19,0c-0.15-0.11-0.05-0.29-0.05-0.44
		c0.04-0.11,0.02-0.29,0.17-0.3c0.57-0.07,1.19,0.05,1.75-0.04C231.35,188.21,231.73,188.08,231.9,188.34L231.9,188.34z"/>
	<path class="st1" d="M234.9,189.02c0.14,0.05,0.27,0.12,0.36,0.23c-0.03,0.29-0.42,0.12-0.53,0.35c-0.17,0.55-0.81,1.18-0.35,1.79
		c0.02,0.06-0.02,0.12-0.08,0.14c-0.23,0.01-0.59-0.3-0.78-0.41c-0.2-0.05-0.45-0.04-0.57-0.23c0.02-0.23,0.32-0.17,0.46-0.29
		c0.34-0.14,0.37-0.59,0.49-0.88c0.04-0.21,0.2-0.41,0.15-0.63c-0.1-0.12-0.34-0.18-0.23-0.38c0.1-0.17,0.29-0.02,0.44-0.03
		C234.37,188.83,234.75,188.93,234.9,189.02L234.9,189.02z"/>
	<path class="st1" d="M241.27,193.85c0.28,0.26,0.41,0.61,0.59,0.93c0.03,0.13,0.14,0.26,0.05,0.4c-0.1,0.14-0.26,0.16-0.42,0.16
		c-0.08-0.04-0.06-0.14-0.04-0.2c0.12-0.41-0.05-0.65-0.39-0.67c-0.06,0.22-0.42,0.12-0.32,0.38c0.08,0.11,0.21,0.24,0.18,0.39
		c0.01,0.16-0.14,0.23-0.26,0.29l-0.1-0.01c-0.12-0.17-0.29-0.3-0.32-0.49c-0.03-0.04-0.09-0.07-0.14-0.03
		c-0.07,0.14-0.32,0.22-0.24,0.42c0.18,0.17,0.17,0.44,0.39,0.58c0.11,0.03,0.19-0.04,0.3-0.04c0.16,0.07,0.41-0.03,0.51,0.12
		c0.02,0.17-0.17,0.15-0.27,0.2c-0.25,0.09-0.54,0.22-0.81,0.1c-0.28-0.25-0.29-0.6-0.55-0.85l-0.02-0.09
		c-0.2-0.2-0.36-0.41-0.6-0.51c-0.07-0.04-0.05-0.14-0.03-0.19c0.12-0.27,0.33,0.01,0.52-0.05c0.39-0.2,0.8-0.35,1.16-0.63
		c0.15-0.02,0.26-0.17,0.34-0.28c-0.02-0.14-0.07-0.27-0.03-0.41c0.06-0.04,0.14-0.09,0.2-0.03
		C241.14,193.48,241.16,193.69,241.27,193.85L241.27,193.85z"/>
	<path class="st1" d="M218.91,194.64c0.05,0.23-0.23,0.38-0.38,0.54c-0.11,0.22-0.16,0.63-0.02,0.86c0.13,0.2,0.3,0.47,0.55,0.49
		l0.51-0.05c0.05-0.13,0.19-0.21,0.17-0.37c-0.04-0.41-0.42,0.05-0.51-0.15c-0.02-0.23,0.11-0.57,0.28-0.72
		c0.25-0.05,0.48,0.12,0.68,0.27c0.09,0.04,0.24,0.02,0.26,0.16v0.14c-0.08,0.32-0.11,0.68-0.26,0.97
		c-0.21,0.26-0.42,0.35-0.77,0.49c-0.2,0.08-0.45,0.14-0.64,0.06c-0.28-0.26-0.75-0.4-0.83-0.83c-0.33-0.58-0.02-1.46,0.32-1.93
		C218.44,194.47,218.8,194.33,218.91,194.64L218.91,194.64z"/>
	<path class="st0" d="M223.45,210.64c-0.04-0.08-0.13-0.19-0.23-0.17c-0.48,0.2-0.9,0.52-1.41,0.67c-0.2,0.11-0.4,0.24-0.64,0.28
		c-0.2,0.07-0.38-0.04-0.57-0.05c-0.05,0.02-0.08,0.08-0.08,0.13c0.32,0.24,0.6,0.6,0.88,0.89c0.13-0.11,0.05-0.32,0.17-0.44
		c0.14-0.06,0.29,0.03,0.44,0.07c0.26,0.14,0.56,0.41,0.55,0.73c-0.02,0.07-0.2,0.03-0.26,0.05c-0.02,0.08-0.13,0.07-0.04,0.16
		l0.48,0.28c0.2,0.13,0.32,0.4,0.55,0.46c0.09-0.02,0.07-0.14,0.06-0.21C222.83,212.53,223.6,211.63,223.45,210.64L223.45,210.64z
		 M222.58,212.03c-0.15,0.03-0.37-0.25-0.47-0.37c-0.05-0.05-0.06-0.11-0.04-0.18c0.18-0.11,0.55-0.46,0.76-0.48l0.03,0.04
		C222.85,211.29,222.63,211.79,222.58,212.03L222.58,212.03z"/>
	<path class="st0" d="M239.47,211.3c-0.39-0.1-0.17,0.08-0.56-0.03c-0.28-0.08-1.17-0.44-1.45-0.53c-0.17-0.07-0.39-0.24-0.57-0.08
		c-0.1,0.29,0.09,0.53,0.06,0.84c0.12,0.43,0.33,1.2,0.18,1.35c-0.18,0.19-0.29,0.35-0.15,0.53c0.14,0.04,0.19-0.08,0.29-0.14
		c0.22-0.17,0.5-0.28,0.66-0.52c-0.03-0.14-0.22-0.05-0.29-0.16c-0.08-0.21,0.24-0.29,0.35-0.44c0.17-0.08,0.27-0.32,0.48-0.32
		c0.23,0.08-0.02,0.25,0.01,0.39c0.02,0.02,0.05,0.07,0.08,0.06c0.35-0.17,0.63-0.55,0.95-0.78
		C239.52,211.42,239.52,211.35,239.47,211.3L239.47,211.3z M237.49,212.07c-0.14-0.14-0.24-0.68-0.21-0.87
		c0.04-0.06,0.19,0.08,0.24,0.11l0.47,0.21c0.03,0.02,0.12,0.05,0.13,0.08C237.97,211.77,237.72,212.14,237.49,212.07L237.49,212.07
		z"/>
	<path class="st1" d="M220.59,207.43l0.02,0.14c-0.15,0.42-0.38,1.25-0.4,1.72c0.04,0.07,0.28-0.19,0.33-0.22
		c0.26-0.11,0.44-0.4,0.71-0.47c0.16,0.05,0.19,0.13,0.29,0.26c0.08,0.17,0.3,0.33,0.23,0.54c-0.18,0.16-0.25-0.17-0.44-0.11
		c-0.37,0.08-0.66,0.33-0.99,0.52c-0.18,0.24-0.45,0.32-0.66,0.51c-0.1-0.05-0.29,0.02-0.29-0.14c0.03-0.57,0.35-1.18,0.3-1.77
		c-0.06-0.08-0.63,0.42-0.7,0.46c-0.29,0.2-0.15,0.19-0.24,0.53c-0.08,0.03-0.17-0.06-0.23-0.11c-0.08-0.16-0.11-0.34-0.2-0.49
		c-0.08-0.08-0.2-0.16-0.16-0.29c0.38,0.04,0.42,0.03,0.75-0.1c0.25-0.18,1.21-0.85,1.22-0.95c0.02-0.09-0.12-0.16-0.07-0.25
		c0.07-0.09,0.2-0.07,0.28-0.02C220.45,207.22,220.54,207.32,220.59,207.43L220.59,207.43z"/>
	<path class="st1" d="M240.43,207.73c0.07,0.06,0.14,0.14,0.08,0.23c-0.28,0.1-0.6,0.1-0.84,0.29c-0.1,0.09-0.26,0.18-0.27,0.32
		c0.09,0.17,0.32,0.37,0.49,0.36c0.23-0.1-0.08-0.45,0.25-0.45c0.24,0.01,0.32,0.04,0.44,0.23c0.02,0.04,0.05,0.1,0.02,0.14
		c-0.1,0.08-0.29-0.01-0.33,0.17c-0.01,0.08,0.01,0.27,0.1,0.33c0.08,0.12,0.23,0.15,0.37,0.12c0.17-0.05,0.24-0.23,0.34-0.35
		c0.12-0.25-0.16-0.41-0.29-0.58c-0.01-0.1,0.05-0.19,0.14-0.23c0.33,0.07,0.53,0.31,0.83,0.44c0.02,0.1-0.03,0.19-0.08,0.26
		c-0.46,0.55-0.76,1.05-1.31,1.54c-0.06,0.04-0.12,0.12-0.18,0.09c-0.14-0.14,0.18-0.37,0.09-0.5c-0.2-0.27-0.72-0.81-1.14-0.97
		c-0.24-0.07-0.28,0.04-0.43,0.21c-0.08,0.07-0.18,0.1-0.27,0.06c-0.1-0.05-0.09-0.14-0.06-0.22c0.09-0.24,0.39-0.4,0.52-0.62
		c0.24-0.42,0.53-0.67,0.82-1.08C239.99,207.33,240.18,207.66,240.43,207.73L240.43,207.73z"/>
	<path class="st1" d="M225.5,211.81c0.63,0.21,1.24,0.45,1.88,0.63c0.09,0.04,0.18,0.11,0.23,0.18c0.04,0.23-0.14,0.39-0.2,0.59
		c-0.06,0.05-0.14,0.05-0.2,0c-0.17-0.17-0.14-0.6-0.49-0.51c-0.25,0.07-0.27,0.43-0.38,0.61c-0.07,0.3-0.3,0.56-0.29,0.88
		c0.08,0.18,0.2,0.25,0.33,0.39c0.03,0.06-0.02,0.13-0.08,0.15c-0.19,0.01-0.31-0.14-0.48-0.17c-0.31-0.11-0.68-0.1-0.96-0.29
		c-0.04-0.04,0-0.08,0-0.12c0.13-0.06,0.27-0.08,0.4-0.14c0.29-0.34,0.31-0.79,0.51-1.16c0.04-0.14,0.19-0.26,0.14-0.41
		c-0.11-0.09-0.23-0.13-0.36-0.15c-0.19,0.12-0.29,0.33-0.47,0.45c-0.06-0.01-0.14-0.02-0.17-0.1c-0.01-0.33,0.11-0.6,0.26-0.87
		C225.29,211.74,225.4,211.78,225.5,211.81L225.5,211.81z"/>
	<path class="st1" d="M230.62,212.86c-0.02,0.09,0.03,0.16,0.1,0.21c0.07,0.04,0.2,0.06,0.19,0.17c0.04,0.54,0.04,1.02-0.27,1.45
		c-0.15,0.16-0.35,0.19-0.55,0.12c-0.49-0.29-0.15-0.8-0.26-1.27c0.02-0.17-0.08-0.4,0.09-0.53c0.05-0.04,0.13-0.05,0.15-0.12
		c-0.02-0.04-0.02-0.1-0.08-0.12c-0.28-0.04-0.65,0.08-0.93-0.01c-0.07-0.01-0.15,0.02-0.17,0.1c-0.05,0.08,0.02,0.15,0.09,0.17
		c0.12,0,0.17,0.1,0.22,0.19c0.18,0.64-0.16,1.3,0.19,1.89c0.3,0.26,0.97,0.28,1.36,0.19c0.81-0.39,0.39-1.36,0.68-2.06
		c0.1-0.07,0.27-0.05,0.32-0.12c0.05-0.08,0.09-0.17,0.04-0.26c-0.27-0.1-0.62-0.04-0.89-0.04
		C230.77,212.82,230.67,212.77,230.62,212.86L230.62,212.86z"/>
	<path class="st0" d="M236.19,213.39c-0.07-0.07-0.17-0.11-0.28-0.08c-0.14,0.04-0.17,0.19-0.2,0.3c-0.05,0.16-0.23,0.12-0.38,0.14
		c-0.12-0.04-0.52-0.28-0.44-0.4c0.16-0.24,0.32-0.62,0.06-0.94c-0.25-0.53-0.94-0.4-1.35-0.23c-0.31,0.21-0.68,0.28-0.99,0.48
		c-0.03,0.08,0.01,0.17,0.07,0.23c0.11,0.11,0.28-0.04,0.4-0.04c0.17,0.15,0.23,0.35,0.33,0.54c0.12,0.32,0.26,0.64,0.33,0.99
		c0.03,0.2-0.16,0.41,0.01,0.54c0.19-0.1,0.41-0.14,0.61-0.2c0.22-0.13-0.16-0.62-0.12-0.79c0.03-0.06,0.09-0.09,0.16-0.08
		c0.14,0.1,0.64,0.35,0.81,0.39c0.51,0,0.81,0.01,1.03-0.5C236.24,213.63,236.31,213.48,236.19,213.39L236.19,213.39z
		 M234.41,213.27c-0.08,0.08-0.23,0.15-0.33,0.11c-0.11-0.09-0.48-0.76-0.28-0.86c0.25-0.05,0.54-0.01,0.68,0.26
		C234.54,212.94,234.47,213.14,234.41,213.27L234.41,213.27z"/>
	<path class="st1" d="M223.17,182.97c0.01,0.35,0.24,0.53,0.13,0.84c-0.08,0.09-0.06,0.12-0.18,0.12c-0.05-0.02-0.14,0.01-0.16-0.06
		c-0.02-0.15-0.18-0.31-0.32-0.36c-0.16-0.01-0.68,0.21-0.78,0.4c-0.05,0.12-0.03,0.26,0.06,0.36c0.44,0.45,1.01,0.01,1.48-0.04
		c0.2,0.02,0.37,0.14,0.54,0.26c0.29,0.32,0.45,0.76,0.31,1.19c-0.23,0.45-0.65,0.96-1.22,0.91c-0.2,0.06-0.36-0.2-0.52-0.04
		c-0.01,0.12,0.03,0.26-0.1,0.31c-0.1,0.02-0.21,0.01-0.29-0.06c-0.12-0.17,0.03-0.36-0.02-0.55c-0.03-0.2-0.2-0.33,0.06-0.48
		c0.31-0.04,0.61,0.4,0.87,0.31c0.25-0.08,0.38-0.15,0.47-0.41c0.04-0.12,0.07-0.27-0.02-0.38c-0.08-0.09-0.18-0.15-0.31-0.15
		c-0.32,0.03-0.51,0.35-0.88,0.29c-0.34-0.04-0.66-0.15-0.87-0.48c-0.17-0.27-0.34-0.6-0.21-0.94c0.11-0.3,0.37-0.57,0.66-0.69
		c0.21-0.08,0.49-0.15,0.71-0.12c0.25-0.05,0.15-0.47,0.49-0.31L223.17,182.97L223.17,182.97z"/>
	<path class="st1" d="M239.83,184.2c0.12,0.12,0.13,0.37,0.35,0.39c0.11,0.01,0.28-0.04,0.31,0.11c-0.1,0.24-0.38,0.32-0.56,0.51
		l-0.26,0.21c-0.06,0.02-0.11-0.04-0.13-0.08c-0.14-0.31,0.15-0.35-0.04-0.63c-0.09-0.13-0.19-0.3-0.36-0.33
		c-0.11-0.01-0.21,0.08-0.26,0.17c-0.2,0.39,0.1,0.67,0.19,1c0.15,0.18,0.21,0.4,0.27,0.62c0.09,0.32-0.04,0.62-0.27,0.82
		c-0.35,0.26-0.7,0.33-1.15,0.2c-0.21-0.12-0.45-0.2-0.63-0.39l-0.24-0.39c-0.14-0.04-0.33-0.01-0.44-0.14
		c-0.05-0.08,0.02-0.17,0.06-0.24l0.64-0.71c0.04-0.04,0.14-0.04,0.2-0.01c0.08,0.04,0.08,0.13,0.11,0.2
		c-0.02,0.21-0.25,0.33-0.21,0.57c-0.03,0.28,0.26,0.44,0.45,0.57c0.13,0.06,0.33,0.07,0.46,0.01c0.17-0.1,0.25-0.29,0.18-0.47
		c-0.02-0.35-0.45-0.54-0.51-0.87c-0.05-0.3-0.17-0.69,0.05-0.94c0.29-0.44,0.82-0.53,1.31-0.47
		C239.54,183.95,239.71,184.05,239.83,184.2L239.83,184.2z"/>
	<path class="st1" d="M219.01,185.21c0.04,0.28-0.24,0.41-0.02,0.66c0.24,0.43,0.77,0.78,0.97,1.22c0.13,0.17,0.22,0.37,0.42,0.46
		c0.22,0.13,0.47-0.22,0.56,0.09c-0.09,0.23-0.43,0.34-0.59,0.5c-0.23,0.17-0.51,0.39-0.64,0.64c-0.06,0.05-0.16,0.1-0.23,0.04
		c-0.18-0.26,0.18-0.58,0.05-0.87c-0.07-0.2-0.28-0.35-0.39-0.54c-0.28-0.47-0.7-0.92-1.18-1.19c-0.17-0.08-0.4,0.16-0.5-0.03
		c0.01-0.14,0.15-0.26,0.26-0.33c0.32-0.25,0.69-0.42,0.99-0.73C218.82,185.09,218.98,185.09,219.01,185.21L219.01,185.21z"/>
	<path class="st1" d="M241.6,186.47c0.21,0.18,0.22,0.44,0.18,0.71c-0.04,0.27-0.3,0.43-0.55,0.49c-0.26,0-0.59,0-0.71-0.29
		c-0.09-0.22-0.02-0.49,0.12-0.68c0.12-0.13,0.24-0.28,0.4-0.34C241.25,186.36,241.44,186.36,241.6,186.47L241.6,186.47z"/>
	<path class="st1" d="M216.35,187.6c0.05,0.08,0.02,0.2-0.01,0.28c-0.08,0.09-0.17,0.2-0.3,0.14c-0.09-0.04-0.24-0.22-0.33-0.12
		c-0.07,0.06-0.27,0.47-0.22,0.54c0.1,0.07,0.31,0.19,0.44,0.18c0.4-0.05,0.95-0.53,1.41-0.38c0.25,0,1.01,0.14,1.01,0.93
		c0,0.23,0.01,0.5-0.1,0.71c-0.17,0.32-0.46,0.73-0.85,0.8c-0.08-0.02-0.17-0.02-0.25,0.01c-0.11,0.11-0.05,0.32-0.2,0.39
		c-0.29,0.08-0.34-0.27-0.47-0.43c-0.09-0.21-0.15-0.32-0.19-0.55c0.01-0.05,0.06-0.06,0.11-0.08c0.49-0.2,0.43,0.52,1.19-0.04
		c0.13-0.1,0.15-0.26,0.15-0.42c-0.11-0.18-0.03-0.52-0.52-0.42c-0.49,0.09-0.85,0.32-1.31,0.41c-0.34,0.02-0.63-0.15-0.86-0.4
		c-0.14-0.29-0.21-0.7-0.05-1c0.15-0.2,0.52-0.95,0.69-0.85C215.96,187.37,216.16,187.43,216.35,187.6L216.35,187.6z"/>
	<path class="st1" d="M213.87,190.03c0.09,0.17-0.1,0.3-0.06,0.49c0.08,0.36,0.39,0.68,0.74,0.77c0.59,0.38,1.06,0.79,1.68,1.1
		c0.05,0.04,0.05,0.11,0.04,0.17c-0.27,0.3-0.62,0.21-1,0.22c-0.6,0.01-1.23,0.03-1.77,0.23c0.18,0.15,0.32,0.37,0.57,0.41
		c0.21,0.26,0.51,0.38,0.82,0.32c0.14-0.01,0.18-0.26,0.34-0.19c0.1,0.05,0.13,0.16,0.1,0.26c-0.29,0.45-0.44,0.96-0.71,1.42
		c-0.04,0.08-0.14,0.14-0.2,0.06c-0.15-0.14,0.01-0.31-0.04-0.48c0.01-0.37-0.36-0.55-0.61-0.75c-0.44-0.29-0.93-0.54-1.48-0.51
		c-0.19-0.02-0.27,0.26-0.48,0.19c-0.14-0.09-0.02-0.27,0.02-0.38c0.18-0.32,0.33-0.59,0.73-0.67c0.59-0.17,1.28-0.31,1.93-0.34
		c0.11-0.01,0.18-0.07,0.25-0.15c-0.24-0.23-0.52-0.42-0.81-0.59c-0.18-0.11-0.3-0.2-0.51-0.24c-0.11,0.06-0.21,0.2-0.36,0.11
		c-0.07-0.05-0.17-0.1-0.18-0.19c-0.02-0.11,0.11-0.15,0.13-0.24c0.2-0.37,0.25-0.81,0.61-1.08
		C213.73,189.95,213.81,189.97,213.87,190.03L213.87,190.03z"/>
	<path class="st1" d="M211.48,195.94c0.12,0.17,0.49,0.05,0.43,0.34c-0.11,0.15-0.49,0.01-0.64,0.07c-0.2,0.14-0.32,0.37-0.3,0.66
		c0.01,0.11,0.06,0.3,0.16,0.35c0.17,0.04,0.54,0.21,0.66,0.01c0.01-0.14-0.02-0.6,0.04-0.64c0.15-0.04,0.17,0.05,0.31,0.04
		c0.17-0.01,0.41,0,0.37,0.07c-0.18,0.32-0.18,0.51-0.36,0.68c0,0.04,0.04,0.06,0.07,0.07c0.36-0.03,0.74,0.21,1.07,0.24
		c0.07-0.23,0.07-0.65,0.13-0.9c0.05-0.39-0.62-0.54-0.48-0.92c0.07-0.11,0.2-0.11,0.3-0.08c0.26,0.11,0.47,0.12,0.65,0.35
		c0.26,0.35,0.06,1.01-0.09,1.34c-0.2,0.41-0.23,1.6-0.3,1.69c-0.06,0.05-0.16,0.06-0.23,0.01c-0.29-0.22-0.04-0.79-0.71-0.83
		c-0.57-0.04-1.1-0.27-1.68-0.39c-0.34-0.03-0.26,0.54-0.61,0.39c-0.23-0.31,0.31-2.1,0.45-2.58c0.05-0.07,0.06-0.06,0.13-0.09
		C211.1,195.79,211.27,195.93,211.48,195.94L211.48,195.94z"/>
	<path class="st1" d="M210.32,201.14c0.5,0.14,1.1,0.04,1.62,0.11c0.32,0,0.71,0.07,0.9-0.21c0.03-0.08,0.06-0.22,0.16-0.24
		c0.08-0.01,0.2-0.04,0.27,0.03l0.04,0.08c-0.03,0.48-0.07,0.93,0.04,1.38c0.01,0.13,0.02,0.26-0.11,0.32
		c-0.3,0.06-0.43-0.44-0.71-0.5c-0.51-0.14-1.12-0.08-1.68-0.09c-0.35-0.02-0.55,0.23-0.77,0.49c-0.05,0.04-0.28,0.02-0.29-0.17
		c-0.02-0.43-0.13-0.7-0.03-1.18c0.03-0.15,0.02-0.37,0.19-0.42C210.15,200.76,210.13,201.07,210.32,201.14L210.32,201.14z"/>
	<path class="st1" d="M213.22,204.1c0.11,0.02,0.29-0.02,0.33,0.11c-0.05,0.26,0.07,0.39,0.1,0.62c0.1,0.46,0.53,1.72,0.53,1.9
		c-0.03,0.08-0.11,0.17-0.19,0.2c-0.41,0.03-0.18-0.36-0.6-0.27c-0.44,0.12-1.44,0.41-1.92,0.42c-0.08,0.02-0.18,0.04-0.19,0.12
		c-0.01,0.11,0.03,0.29-0.11,0.32c-0.16,0.01-0.25-0.16-0.33-0.26c-0.17-0.42-0.56-0.8-0.42-1.3c0.05-0.1,0.14-0.1,0.23-0.11
		c0.24,0.02,0.2,0.4,0.46,0.35c0.26-0.07,0.69-0.1,0.97-0.13c0.33-0.21,1.26,0.04,1.2-0.42c-0.19-1.33-0.6-1.02-1.03-1.49
		c-0.13-0.14,0.14-0.12,0.21-0.18C212.75,203.95,212.96,204.07,213.22,204.1L213.22,204.1z"/>
	<path class="st1" d="M247.04,204.73c0.5,0.35,1.14,0.34,1.74,0.44c0.23,0.02,0.48,0.26,0.68,0.07c0.07-0.11,0.11-0.26,0.23-0.33
		c0.11-0.02,0.23,0.06,0.25,0.17c-0.05,0.3-0.22,0.54-0.27,0.83c-0.2,0.4-0.34,0.84-0.36,1.31c-0.04,0.09-0.09,0.21-0.2,0.24
		c-0.31,0.03-0.57-0.04-0.85-0.09c-0.1-0.04-0.22-0.26-0.11-0.26c0.7-0.01,1.04-0.92,0.99-1.04c-0.05-0.11-0.67-0.13-0.91-0.21
		c-0.18-0.06,0.11,0.52-0.2,0.63c-0.26,0.05-0.11-0.04-0.36-0.02c-0.08-0.04-0.16-0.11-0.19-0.2c-0.03-0.11-0.01-0.23,0.08-0.3
		c0.05-0.03,0.1-0.06,0.11-0.12c0.03-0.11-0.11-0.16-0.22-0.19c-0.29-0.03-0.74-0.41-0.91-0.14c-0.08,0.36-0.28,0.81,0.24,1.35
		c0.04,0.04-0.01,0.11-0.08,0.14l-0.16-0.02l-0.61-0.42c-0.11-0.14-0.04-0.34-0.01-0.48c0.11-0.43,0.25-0.83,0.39-1.25
		c0.08-0.17,0.12-0.37,0.29-0.49C246.92,204.34,246.81,204.64,247.04,204.73L247.04,204.73z"/>
	<path class="st1" d="M245.56,208.29l0.02,0.23c0.38,0.39,0.82,0.7,1.31,0.88c0.35,0.29,0.74,0.48,1.13,0.68
		c0.11,0.07,0.19,0.18,0.14,0.32c-0.37,0.42-1.07,0.26-1.59,0.26c-0.06-0.02-0.32-0.08-0.38-0.07c-0.08,0.09,0.13,0.37,0.16,0.45
		c0.2,0.39,0.42,0.66,0.6,1.06c0.02,0.09-0.05,0.14-0.09,0.2c-0.38,0.04-0.66-0.26-0.99-0.39c-0.21-0.08-0.31-0.23-0.5-0.3
		c-0.38-0.13-0.88-0.63-1.22-0.36c-0.13,0.1-0.24,0.02-0.37-0.08c0.02-0.29,0.2-0.56,0.34-0.82c0.14-0.08,0.08-0.4,0.32-0.3
		c0.24,0.11-0.04,0.44,0.23,0.48c0.25,0.11,1.24,0.58,1.44,0.81c0.1,0.05-0.82-1.19-0.83-1.48c0.01-0.11,1.68,0.11,1.7,0.03
		c-0.02-0.13-0.98-0.53-1.07-0.58c-0.26-0.01-0.53-0.41-0.87,0.15c-0.05,0.08-0.22,0.01-0.26-0.09c0.02-0.11,0.12-0.2,0.15-0.31
		c0.17-0.29,0.09-0.72,0.45-0.91C245.44,208.15,245.5,208.21,245.56,208.29L245.56,208.29z"/>
	<path class="st1" d="M243.14,212.64c0.11,0.32,0.54,0.4,0.79,0.66c0.42,0.27,0.66,0.92,1.2,0.92c0.2-0.01,0.44-0.12,0.54,0.05
		c0.09,0.28-0.24,0.29-0.38,0.42c-0.2,0.25-0.45,0.47-0.64,0.7c-0.06,0.04-0.14,0.02-0.19-0.02c-0.09-0.13,0.12-0.31,0.04-0.45
		c-0.11-0.2-0.6-0.56-0.82-0.68c-0.36-0.27-0.5-0.6-0.93-0.77c-0.25-0.07-0.48,0.29-0.67,0.01c-0.01-0.36,0.38-0.52,0.52-0.82
		c0.16-0.13,0.23-0.33,0.4-0.44C243.21,212.25,243.08,212.52,243.14,212.64L243.14,212.64z"/>
	<path class="st1" d="M218.24,213.6c0.02,0.37,0.33,0.64,0.66,0.76c0.03,0.08-0.03,0.17-0.11,0.19c-0.17,0.08-0.37,0.06-0.56,0.08
		c-0.17,0.16-0.19,0.1-0.41,0.15c-0.08,0.03-0.18,0-0.21-0.08v-0.09c0.14-0.11,0.24-0.17,0.29-0.37c0.02-0.33-0.28-0.6-0.55-0.77
		c-0.14-0.05-0.25-0.03-0.39,0.04c-0.17,0.14-0.07,0.31-0.02,0.52c0.11,0.29,0.13,0.53,0.16,0.86c0,0.4-0.08,0.76-0.37,1.03
		c-0.24,0.14-0.49,0.29-0.8,0.2c-0.27,0.01-0.43-0.24-0.62-0.4c-0.17-0.28-0.37-0.54-0.48-0.83c0.01-0.19,0.22-0.24,0.34-0.33
		l0.47-0.12c0.23,0.17-0.12,0.29-0.14,0.45c-0.02,0.24,0.07,0.45,0.27,0.59c0.18,0.06,0.36,0.03,0.51-0.06
		c0.14-0.1,0.06-0.26,0.07-0.41c-0.07-0.55-0.45-1.03-0.29-1.62c0.06-0.2,0.17-0.41,0.37-0.54c0.54-0.2,1.11,0.02,1.52,0.38
		C218.1,213.33,218.18,213.47,218.24,213.6L218.24,213.6z"/>
	<path class="st1" d="M237.61,216.96c-0.05,0.16-0.33,0.2-0.2,0.39c0.13,0.29,0.1,0.62,0.32,0.87c0.11,0.31,0.24,0.92,0.54,1.13
		c0.17,0.19,0.36-0.04,0.59,0c0.08,0.06,0.13,0.16,0.12,0.26c-0.07,0.24-0.35,0.16-0.53,0.26c-0.51,0.19-1.14,0.44-1.64,0.66
		c-0.14,0.05-0.16,0.31-0.36,0.21c-0.22-0.21-0.21-0.55-0.4-0.79c-0.02-0.07-0.02-0.17,0.05-0.21c0.13-0.04,0.19,0.09,0.29,0.11
		c0.15,0.02,0.16,0.23,0.33,0.16c0.11-0.14,0.58-0.29,0.58-0.29l-0.23-0.71c-0.07-0.07-0.16-0.09-0.25-0.07
		c-0.15,0.11-0.08,0.32-0.23,0.42c-0.09,0.02-0.14-0.09-0.17-0.15c-0.13-0.24-0.17-0.35-0.13-0.63c0.16-0.18,0.34,0.07,0.53,0.02
		c0.08-0.06,0.04-0.17,0.01-0.25c-0.25-0.19-0.17-0.89-0.64-0.7c-0.19,0.08-0.51,0.16-0.57,0.39c-0.08,0.14-0.05,0.36-0.24,0.4
		c-0.08,0.02-0.16-0.01-0.18-0.08c-0.03-0.15,0.06-0.25,0.07-0.39c0-0.14-0.14-0.36,0.05-0.43c0.48-0.2,1.03-0.28,1.51-0.48
		c0.17-0.1,0.53-0.35,0.73-0.26L237.61,216.96L237.61,216.96z"/>
	<path class="st0" d="M249.49,196.43c-0.06-0.08-0.14-0.18-0.24-0.18c-0.32,0.12-0.6-0.06-0.93-0.05c-0.12-0.04-1.33-0.08-1.78-0.3
		c-0.41-0.19-0.51-0.52-0.51-0.52c-0.04-0.14-0.28-0.21-0.33-0.08c-0.05,0.15-0.02,0.42,0.07,0.62c0.14,0.29,0.17,0.49,0.28,0.76
		c0.02,0.09,0.11,0.12,0.19,0.1c0.09-0.01,0.06-0.34,0.04-0.43c0.04-0.08,0.21,0.05,0.29,0.03c0.16-0.02,0.19,0.03,0.31,0.13
		c0.09,0.21,0.14,0.55,0.19,0.76c0.01,0.17,0.07,0.32,0.05,0.49c-0.04,0.08-0.26,0.24-0.36,0.22c-0.17-0.04-0.18-0.3-0.36-0.3
		c-0.11,0.03-0.08,0.15-0.09,0.24c0.08,0.2,0.05,1.03,0.14,1.25c0.04,0.08,0.11,0.21,0.23,0.16c0.36-0.23,0-0.26,0.35-0.54
		c0.36-0.3,1.69-1.46,1.95-1.61c0.12-0.06,0.36-0.33,0.46-0.44C249.5,196.65,249.53,196.53,249.49,196.43L249.49,196.43z
		 M247.47,197.47c-0.08,0.01-0.1-0.09-0.13-0.14l-0.11-0.81c0.21-0.15,0.98,0.1,1.3,0.09C248.78,196.6,247.67,197.32,247.47,197.47
		L247.47,197.47z"/>
	<path class="st0" d="M244.9,188.24c-0.02-0.13-0.18-0.14-0.29-0.14c-0.82,0.23-1.54,0.67-2.35,0.93c-0.25,0-0.51,0.05-0.72-0.08
		c-0.1-0.01-0.24-0.1-0.33,0c-0.03,0.11,0.01,0.2,0.06,0.29c0.32,0.2,0.52,0.73,0.88,0.73c0.15,0-0.05-0.24,0.22-0.37
		c0.37-0.18,0.69,0.32,0.89,0.6c0.04,0.12,0.01,0.26-0.05,0.36c-0.05,0.09-0.16,0.02-0.27,0c-0.1,0.01-0.18-0.11-0.24,0.01
		c-0.02,0.02-0.02,0.17-0.01,0.19c0.27,0.13,0.45,0.41,0.62,0.64c0.11,0.1,0.2,0.35,0.32,0.27c0.21-0.15,0.07-0.27,0.1-0.43
		c0.06-0.35,0.38-0.82,0.53-1.33C244.39,189.36,244.82,188.79,244.9,188.24L244.9,188.24z M243.51,189.74
		c-0.22-0.01-0.43-0.28-0.53-0.44c0.11-0.15,0.72-0.45,0.88-0.53C244.03,188.71,243.64,189.65,243.51,189.74L243.51,189.74z"/>
	<path class="st0" d="M242.04,217.5c-0.17-0.63-0.36-1.26-0.46-1.92c-0.03-0.26-0.1-0.56-0.05-0.82c0.09-0.17,0.26-0.32,0.28-0.52
		c-0.03-0.08-0.12-0.12-0.21-0.11c-0.2,0.21-0.44,0.34-0.69,0.45c-0.11,0.2-0.24,0.09-0.31,0.32c0.04,0.12,0.2,0.11,0.32,0.12
		c0.12,0.02,0.07,0.16,0.08,0.24c-0.17,0.33-0.53,0.52-0.83,0.69c-0.1,0.01-0.17-0.06-0.22-0.14c-0.16-0.18-0.05-0.21-0.07-0.4
		c-0.02-0.05-0.08-0.07-0.14-0.06c-0.29,0.26-0.66,0.38-0.93,0.67c-0.07,0.07-0.2,0.09-0.18,0.21c0.04,0.1,0.07,0.21,0.17,0.28
		c0.08,0.04,0.19,0.04,0.26,0c0.59-0.31,0.97,0.55,1.48,0.82c0.38,0.1,0.88,0.73,1.13,0.7c0.2-0.02,0.34-0.1,0.47-0.23
		C242.19,217.68,242.08,217.59,242.04,217.5L242.04,217.5z M241.41,217.11c-0.15-0.03-0.68-0.68-0.8-0.75
		c-0.04-0.03-0.09-0.01-0.11-0.07l0.01-0.08c0.14-0.13,0.62-0.63,0.74-0.25c0.05,0.14,0.24,0.88,0.27,1.03
		C241.5,217.06,241.46,217.1,241.41,217.11L241.41,217.11z"/>
	<path class="st0" d="M216.17,211.1c-0.17-0.34-0.38-0.99-0.57-0.98c-0.29,0.02-0.01,0.47-0.25,0.61c-0.11,0.07-0.26,0.1-0.39,0.05
		c-0.28-0.14-0.27-0.25-0.45-0.63c-0.08-0.16-0.28-0.35-0.12-0.54c0.12-0.11,0.17-0.33,0.37-0.33c0.08,0.02,0.08,0.11,0.11,0.17
		c0.05,0.09,0.09,0.24,0.23,0.19c0.05-0.02,0.13-0.06,0.13-0.13c-0.04-0.36-0.32-0.6-0.43-0.94c-0.15-0.18-0.1-0.54-0.41-0.57
		c-0.19,0.08-0.06,0.34-0.11,0.51c-0.23,0.3-0.41,0.63-0.7,0.91c-0.26,0.3-0.48,0.66-0.79,0.93l-0.3,0.5
		c-0.02,0.11-0.17,0.35-0.01,0.36c0.92,0.1,1.66,0.05,2.49,0.04c0.33,0.01,0.76-0.09,1,0.19c0.1,0.07,0.12,0.2,0.23,0.24
		c0.09,0.03,0.17,0.04,0.24-0.05C216.45,211.43,216.27,211.27,216.17,211.1L216.17,211.1z M214.15,210.79
		c-0.23-0.01-0.6,0.02-0.83,0.02c-0.05-0.03,0.57-0.61,0.59-0.66c0.17-0.17,0.27,0.19,0.27,0.19s0.08,0.31,0.19,0.37
		C214.38,210.77,214.2,210.8,214.15,210.79L214.15,210.79z"/>
	<path class="st1" d="M244.67,193.78c-0.18-0.33-0.26-0.59-0.25-0.79c0.01-0.2,0.18-0.42,0.2-0.6c0.1-0.24,0.33-0.44,0.54-0.61
		c0.2-0.17,0.45-0.3,0.73-0.38c0.26-0.01,0.52-0.13,0.73-0.12c0.21,0.01,0.41,0.07,0.59,0.16c0.18,0.09,0.29,0.25,0.46,0.39
		c0.51,0.66,0.59,1.38,0.31,1.53l-0.08,0.05l-0.3,0.14c-0.12,0.08-0.21,0.09-0.26,0.11c-0.05,0.03-0.08,0.05-0.11,0.05
		c-0.03,0.01-0.06,0.01-0.09,0c-0.03-0.01-0.04-0.03-0.05-0.05c-0.01-0.03,0.03-0.1,0.1-0.2c0.04-0.05,0.07-0.09,0.09-0.12
		c0.1-0.15,0.21-0.18,0.25-0.3c0.04-0.13,0.01-0.35-0.02-0.47c-0.04-0.24-0.2-0.44-0.45-0.53c-0.25-0.09-0.54-0.02-0.87,0.08
		c-0.38,0.11-0.61,0.22-0.8,0.45c-0.19,0.22-0.27,0.54-0.18,0.81c0.02,0.11,0.06,0.18,0.1,0.22c0.03,0.18,0.51,0.72,0.6,0.7
		c0.13,0.08-0.09,0.23-0.09,0.23C245.76,194.54,244.91,194.25,244.67,193.78L244.67,193.78z"/>
	<path class="st1" d="M223.99,220.74c-0.06-0.02-0.14-0.06-0.16-0.1c-0.02-0.04-0.03-0.08-0.01-0.13c0.03-0.08,0.29-0.1,0.3-0.1
		c0.07-0.02,0.16-0.16,0.28-0.44c0.02-0.05,0.19-0.59,0.25-0.8c0.01-0.02,0.07-0.36,0.08-0.4c0.09-0.24,0.02-0.4-0.04-0.54
		c-0.06-0.14-0.16-0.24-0.38-0.32c-0.23-0.08-0.32-0.05-0.47,0.01c-0.15,0.06-0.27,0.13-0.34,0.33c-0.02,0.05-0.17,0.27-0.18,0.31
		l-0.41,0.77c-0.1,0.34-0.19,0.56-0.15,0.62c0.02,0.02,0.04,0.05,0.07,0.09c0.07,0.07,0.16,0.2,0.14,0.25
		c-0.02,0.05-0.04,0.08-0.08,0.09c-0.03,0.01-0.08,0.01-0.13-0.01l-0.89-0.39c-0.06-0.02-0.1-0.05-0.12-0.09
		c-0.02-0.04-0.03-0.08-0.01-0.13c0.02-0.06,0.08-0.09,0.18-0.1c0,0,0.26,0.04,0.28,0.02c0.03-0.02,0.57-1.06,0.57-1.06
		c0.01-0.03,0.27-0.56,0.3-0.64c0.11-0.29,0.29-0.48,0.54-0.55c0.25-0.07,0.52-0.06,0.92,0.08c0.46,0.17,0.72,0.32,0.88,0.55
		c0.16,0.24,0.21,1.03,0.11,1.23c-0.04,0.09-0.09,0.31-0.12,0.36l-0.13,0.65c-0.01,0.02-0.04,0.21-0.05,0.23
		c-0.01,0.02-0.06,0.17-0.05,0.2c0,0.03,0.1,0.14,0.1,0.14c0.07,0.07,0.1,0.13,0.08,0.19c-0.02,0.04-0.04,0.07-0.08,0.09
		c-0.04,0.02-0.09,0.02-0.13,0L223.99,220.74L223.99,220.74z"/>
	<path class="st0" d="M252.65,199.64c-0.16-0.88-0.16-1.81-0.48-2.63c-0.23-1.38-0.73-2.65-1.19-3.94c-0.23-0.48-0.39-0.98-0.73-1.4
		c-0.17-0.34-0.39-0.66-0.54-1c-0.35-0.47-0.51-1.02-0.86-1.48c-0.44-0.47-0.75-1.02-1.16-1.5c-0.38-0.54-0.91-0.99-1.29-1.53
		c-0.37-0.17-0.48-0.62-0.85-0.82c-0.14-0.28-0.49-0.34-0.64-0.63c-0.46-0.39-0.87-0.88-1.36-1.23c-0.73-0.62-1.64-0.78-2.35-1.43
		l-0.6-0.3c-0.53-0.39-1.16-0.55-1.72-0.86c-0.48-0.24-0.98-0.43-1.46-0.66c-0.4-0.11-0.77-0.31-1.19-0.38
		c-0.11,0-0.19-0.11-0.3-0.09c-0.97,0.01-1.79-0.36-2.7-0.48c-0.82-0.02-1.63-0.17-2.44-0.27c-0.36,0.05-0.73-0.02-1.07,0.05
		c-0.66,0.05-1.32,0.06-1.96,0.15c-0.95,0.17-1.94,0.24-2.79,0.65c-0.94,0.32-1.89,0.64-2.82,0.98c-0.2,0.12-0.41,0.19-0.64,0.23
		c-0.57,0.15-1.02,0.55-1.59,0.69c-0.6,0.36-1.27,0.51-1.8,1.03c-0.6,0.25-1.16,0.62-1.69,1.05c-0.63,0.28-1.18,0.77-1.72,1.23
		c-0.55,0.64-1.23,1.13-1.78,1.74c-0.19,0.29-0.44,0.56-0.61,0.85c-0.28,0.33-0.54,0.66-0.79,1.01c-0.35,0.33-0.57,0.73-0.81,1.12
		c-0.27,0.55-0.65,1.05-0.93,1.59c-0.12,0.4-0.33,0.76-0.48,1.16c-0.28,0.46-0.45,0.97-0.64,1.47c-0.16,0.55-0.4,1.06-0.51,1.63
		c-0.06,0.2-0.22,0.35-0.17,0.58c-0.17,0.42-0.2,0.91-0.28,1.36c-0.02,0.74-0.29,1.39-0.29,2.13c0,0.62-0.04,1.26-0.05,1.87
		c0.03,1.04,0,2.11,0.13,3.13c0.08,0.45,0.06,0.91,0.21,1.32c0.3,1.16,0.53,2.35,0.97,3.45c0.22,0.82,0.62,1.56,0.91,2.34
		c0.24,0.42,0.6,0.79,0.75,1.25c0.32,0.5,0.53,1.06,0.95,1.5c0.06,0.16,0.28,0.26,0.29,0.44c0.23,0.26,0.4,0.56,0.6,0.85
		c0.3,0.29,0.51,0.63,0.81,0.91c0.07,0.26,0.37,0.39,0.48,0.62c0.25,0.23,0.57,0.4,0.74,0.71c0.46,0.18,0.73,0.64,1.13,0.93
		c1,0.87,2.07,1.58,3.19,2.19c0.51,0.2,0.97,0.52,1.46,0.74c0.66,0.33,1.35,0.58,2.02,0.88c0.6,0.06,1.12,0.38,1.74,0.36
		c0.23,0.01,0.42,0.15,0.66,0.15c0.82,0.18,1.63,0.39,2.46,0.55c1.31,0.05,2.69,0.27,4,0.05c1.8,0.04,3.47-0.26,5.08-0.69
		c0.75-0.28,1.53-0.46,2.29-0.73c0.89-0.49,1.87-0.77,2.75-1.28c0.23-0.1,0.43-0.27,0.67-0.34c0.65-0.32,1.21-0.87,1.83-1.25
		c0.89-0.56,1.74-1.24,2.55-1.93c0.7-0.79,1.43-1.6,1.97-2.48c0.66-0.82,1.26-1.67,1.71-2.59c0.09-0.07,0.11-0.19,0.17-0.28
		c0.03-0.23,0.16-0.42,0.26-0.63c0.22-0.68,0.64-1.28,0.88-1.96c0.17-0.37,0.26-0.78,0.35-1.19c0.26-0.72,0.5-1.44,0.66-2.19
		c0.23-1.36,0.52-2.7,0.66-4.1C252.87,201.46,252.68,200.54,252.65,199.64L252.65,199.64z M252.06,203.26
		c-0.13,1.21-0.33,2.47-0.61,3.61c-0.09,0.89-0.63,1.51-0.78,2.37c-0.21,0.5-0.29,1.15-0.6,1.62c-0.37,0.71-0.71,1.3-1.04,2.02
		c-0.46,0.88-2.35,3.92-4.16,5.09c-0.7,0.47-1.38,0.98-2.05,1.53l-0.89,0.54c-0.43,0.07-0.72,0.5-1.1,0.69
		c-0.28,0.19-0.61,0.27-0.92,0.42c-0.92,0.48-1.83,0.97-2.84,1.24c-0.75,0.32-1.6,0.43-2.36,0.75c-0.99,0.15-1.98,0.3-2.98,0.41
		c-1.03-0.02-2.05,0.21-3.04,0.02c-0.59-0.15-1.27-0.12-1.88-0.14c-0.27,0.02-0.47-0.13-0.73-0.16c-0.69-0.12-1.32-0.37-2.04-0.42
		c-0.83-0.16-1.59-0.47-2.39-0.71c-0.17-0.11-0.37-0.11-0.55-0.18c-0.79-0.48-1.68-0.76-2.45-1.28l-0.15-0.07
		c-0.6-0.5-1.25-0.87-1.89-1.27c-0.71-0.57-1.49-1.02-2.17-1.68c-0.46-0.38-0.8-0.89-1.2-1.32c-0.34-0.26-0.56-0.6-0.87-0.9
		c-0.56-0.62-0.86-1.37-1.41-2.01c-0.45-0.6-0.65-1.29-1.01-1.92c-0.2-0.5-0.48-0.95-0.66-1.46c-0.31-0.79-0.46-1.65-0.81-2.42
		c-0.13-0.55-0.32-1.08-0.38-1.66c-0.11-0.85-0.34-1.7-0.23-2.61c-0.07-0.51-0.11-1.1-0.04-1.6c-0.08-0.2,0.02-0.41,0.04-0.6
		c-0.08-0.42,0.11-0.83-0.01-1.24c0-0.73,0.25-1.33,0.23-2.08c0.08-0.47,0.19-0.94,0.23-1.43c0.14-0.27,0.18-0.57,0.32-0.84
		c0.04-0.51,0.29-0.93,0.41-1.4c0.19-0.56,0.43-1.11,0.75-1.62c0.31-0.57,0.57-1.17,0.8-1.78c0.45-0.6,0.74-1.27,1.3-1.85
		c0.28-0.53,0.72-1.01,1.11-1.48c0.17-0.47,0.65-0.72,0.98-1.1c0.69-0.69,1.45-1.24,2.25-1.69c0.5-0.3,0.96-0.69,1.47-0.97
		c0.08-0.14,0.25-0.13,0.37-0.22c0.84-0.53,1.67-1.09,2.58-1.46c1.13-0.63,2.38-0.95,3.61-1.36c0.44-0.09,0.89-0.19,1.3-0.35
		c0.4-0.02,0.73-0.18,1.1-0.26c0.38-0.1,0.8-0.1,1.17-0.23c0.84-0.13,1.66,0.08,2.51,0.06c0.34,0.03,0.65-0.07,1-0.03
		c0.21,0.02,0.42,0.01,0.61-0.03c0.66-0.02,1.27,0.11,1.88,0.22c0.3,0.09,0.6,0.16,0.91,0.23c0.4,0.01,0.72,0.25,1.12,0.31
		c0.4,0.14,0.84,0.18,1.24,0.31c0.99,0.41,2.01,0.76,2.98,1.24c0.71,0.52,1.53,0.75,2.22,1.34c0.57,0.35,1.13,0.76,1.68,1.18
		c0.28,0.18,0.49,0.5,0.75,0.72c0.35,0.36,0.73,0.69,1.08,1.04c0.32,0.27,0.56,0.62,0.89,0.87c0.27,0.34,0.52,0.69,0.81,1.02
		c0.6,0.81,1.18,1.62,1.65,2.48c0.45,0.54,0.73,1.15,1.01,1.76c0.31,0.92,0.79,1.79,0.99,2.75c0.21,0.81,0.55,1.56,0.71,2.39
		c0.14,0.67,0.19,1.38,0.24,2.08c0.08,0.57,0.13,1.23,0.04,1.81C252.2,202.14,252.22,202.75,252.06,203.26L252.06,203.26z"/>
	<path class="st0" d="M250.13,200.02c-0.25-0.37-0.28,0.19-0.38,0.32c-0.26,0.1-0.58,0.18-0.86,0.16c-0.56-0.13-0.97,0.13-1.54,0
		c-0.1-0.06-0.29,0.06-0.33-0.07c-0.07-0.12-0.17-0.26-0.31-0.24c-0.04,0.02-0.08,0.04-0.08,0.1c0.11,0.44,0.07,1.09,0.11,1.57
		c-0.01,0.3,0.58,1.09,0.77,1.23c0.31,0.22,0.68,0.23,1.1,0.23c0.37,0,0.68-0.28,0.98-0.54l0.31-0.42c0.07-0.12,0.05-0.26,0.13-0.37
		c0.05-0.29,0.13-0.65,0.13-1.02C250.14,200.69,250.2,200.3,250.13,200.02L250.13,200.02z M249.51,202.03
		c-0.41,0.57-1.18,0.46-1.78,0.39c-0.19-0.09-0.41-0.23-0.48-0.46c-0.02-0.11-0.07-0.45,0-0.55c0.27-0.16,0.65-0.09,0.95-0.05
		c0.27,0.03,1.23-0.14,1.34-0.01C249.54,201.47,249.55,201.91,249.51,202.03L249.51,202.03z"/>
</g>
</svg>
