<svg xmlns="http://www.w3.org/2000/svg" viewBox="0 0 33.29 40"><defs><style>.cls-1{fill:#1d1d1b;}</style></defs><title>Asset 2</title><g id="Layer_2" data-name="Layer 2"><g id="Lager_1" data-name="Lager 1"><path class="cls-1" d="M.29,39.81A1.1,1.1,0,0,1,0,39v-.08a1.17,1.17,0,0,1,.74-1,20.67,20.67,0,0,1,3.41-1.17c.57-.13,3.43-.73,4-.82s3.85-.45,4.29-.5,5.73-.48,6.2-.52l3.94-.2a19.71,19.71,0,0,0,3.17-.41,10.5,10.5,0,0,1,1.4-.39,1.85,1.85,0,0,1,2,1s.85,1.43.4,2.22a.64.64,0,0,1-.07.12,3.4,3.4,0,0,1-1.31,1.18,1.8,1.8,0,0,1-.82.26,14.67,14.67,0,0,1-2.42,0l-.66-.05L21,38.51c-1.62-.07-3-.17-3.77-.15s-2.22,0-3.48.1-4.3.37-5,.43-3.14.3-3.91.43-2.11.42-2.42.5A4.88,4.88,0,0,1,.57,40a.61.61,0,0,1-.28-.14"/><path class="cls-1" d="M17.57,29.8c-.57,0-.73-.67-1.06-1.25s-1.73-3.33-2.06-3.95-2.25-4.33-2.54-4.79c-.2-.31-1.31-2.35-2-3.57-.34-.58-1-1.55-1.43-2.19L6.88,11.9c-.48-.62-1.45-1.93-2.26-3a1.54,1.54,0,0,1,.24-2,3.17,3.17,0,0,1,1.55-.46A1.61,1.61,0,0,1,7,6.54a4.26,4.26,0,0,1,1.09.57,16.21,16.21,0,0,1,3.09,3.32c.76,1,2,3.48,2.48,4.27s1.68,3.79,1.94,4.38,1.19,3.27,1.58,4.31.89,2.56,1.22,3.8a3.94,3.94,0,0,1,.24,1.54,1.14,1.14,0,0,1-.08.4,1.22,1.22,0,0,1-1,.67"/><path class="cls-1" d="M19.71,16.44s-.2.08-.4-.32a.83.83,0,0,1,0-.42,32,32,0,0,1,1.88-6.22A37.23,37.23,0,0,1,23.5,4.7c.95-1.38,2.32-3.34,3.19-3.88A3.88,3.88,0,0,1,29.06,0,1.93,1.93,0,0,1,30.55,1a2,2,0,0,1-.18,1.68A3.79,3.79,0,0,1,29.1,4a23.6,23.6,0,0,0-2.43,1.59A17.82,17.82,0,0,0,25.34,7l-.95,1.15c-.17.2-.56.73-.66.85a23.44,23.44,0,0,0-1.84,3.13c-.88,1.83-1,2.18-1.59,3.49,0,0-.26.79-.59.85"/><path class="cls-1" d="M21.72,22.4s-.52-.11-.49-.52a3.15,3.15,0,0,1,.2-.74A29.36,29.36,0,0,1,23,17.31a24.62,24.62,0,0,1,5.14-6.6A6.79,6.79,0,0,1,31.24,9a1.66,1.66,0,0,1,.91,0,1.51,1.51,0,0,1,1.13,1,2.11,2.11,0,0,1-1.05,2s-3.67,2.52-4.3,3.05a20.79,20.79,0,0,0-2.18,1.88,34.86,34.86,0,0,0-2.33,2.89s-.57,1-1.08,1.86a2.56,2.56,0,0,1-.39.58.33.33,0,0,1-.23.13"/></g></g></svg>